G04 #@! TF.FileFunction,Copper,L2,Bot,Signal*
%FSLAX46Y46*%
G04 Gerber Fmt 4.6, Leading zero omitted, Abs format (unit mm)*
G04 Created by KiCad (PCBNEW (2015-08-28 BZR 6132)-product) date Tuesday, October 27, 2015 'PMt' 02:37:42 PM*
%MOMM*%
G01*
G04 APERTURE LIST*
%ADD10C,0.100000*%
%ADD11C,1.778000*%
%ADD12R,1.727200X1.727200*%
%ADD13O,1.727200X1.727200*%
%ADD14O,3.014980X1.506220*%
%ADD15R,2.235200X2.235200*%
%ADD16R,2.032000X1.727200*%
%ADD17O,2.032000X1.727200*%
%ADD18R,1.727200X2.032000*%
%ADD19O,1.727200X2.032000*%
%ADD20R,2.032000X2.032000*%
%ADD21O,2.032000X2.032000*%
%ADD22C,1.998980*%
%ADD23C,4.064000*%
%ADD24O,2.032000X2.540000*%
%ADD25R,1.524000X1.524000*%
%ADD26C,1.524000*%
%ADD27O,1.778000X3.014980*%
%ADD28C,0.508000*%
%ADD29C,1.016000*%
%ADD30C,0.304800*%
%ADD31C,0.508000*%
%ADD32C,4.064000*%
%ADD33C,2.032000*%
%ADD34C,0.254000*%
G04 APERTURE END LIST*
D10*
D11*
X17399000Y-44704000D03*
X17399000Y-47244000D03*
X26289000Y-34544000D03*
X23749000Y-34544000D03*
D12*
X16637000Y-74930000D03*
D13*
X14097000Y-74930000D03*
X16637000Y-72390000D03*
X14097000Y-72390000D03*
X16637000Y-69850000D03*
X14097000Y-69850000D03*
D14*
X16764000Y-65024000D03*
X16764000Y-62484000D03*
X16764000Y-59944000D03*
X16764000Y-57404000D03*
X16764000Y-54864000D03*
X16764000Y-52324000D03*
D15*
X57404000Y-26924000D03*
D16*
X100076000Y-53340000D03*
D17*
X100076000Y-50800000D03*
X100076000Y-48260000D03*
X100076000Y-45720000D03*
X100076000Y-43180000D03*
D16*
X199136000Y-55372000D03*
D17*
X199136000Y-52832000D03*
X199136000Y-50292000D03*
X199136000Y-47752000D03*
X199136000Y-45212000D03*
D16*
X293497000Y-73914000D03*
D17*
X293497000Y-71374000D03*
X293497000Y-68834000D03*
X293497000Y-66294000D03*
X293497000Y-63754000D03*
D16*
X148844000Y-55372000D03*
D17*
X148844000Y-52832000D03*
X148844000Y-50292000D03*
X148844000Y-47752000D03*
X148844000Y-45212000D03*
D16*
X244348000Y-78740000D03*
D17*
X244348000Y-76200000D03*
X244348000Y-73660000D03*
X244348000Y-71120000D03*
X244348000Y-68580000D03*
D15*
X37084000Y-26924000D03*
X47244000Y-26924000D03*
D18*
X51689000Y-92964000D03*
D19*
X54229000Y-92964000D03*
X56769000Y-92964000D03*
X59309000Y-92964000D03*
X61849000Y-92964000D03*
X64389000Y-92964000D03*
D20*
X103632000Y-94742000D03*
D21*
X106172000Y-94742000D03*
D11*
X37084000Y-34544000D03*
X37084000Y-38354000D03*
X58674000Y-40894000D03*
X58674000Y-37084000D03*
D22*
X90424000Y-54864000D03*
X90424000Y-44704000D03*
X86614000Y-40894000D03*
X86614000Y-30734000D03*
X86614000Y-85979000D03*
X86614000Y-75819000D03*
X90424000Y-75819000D03*
X90424000Y-85979000D03*
X86614000Y-44704000D03*
X86614000Y-54864000D03*
X70104000Y-42799000D03*
X70104000Y-52959000D03*
X139065000Y-55753000D03*
X139065000Y-45593000D03*
X135255000Y-40513000D03*
X135255000Y-30353000D03*
X139065000Y-86233000D03*
X139065000Y-76073000D03*
X135255000Y-76073000D03*
X135255000Y-86233000D03*
X135255000Y-45593000D03*
X135255000Y-55753000D03*
X139065000Y-40513000D03*
X139065000Y-30353000D03*
X118745000Y-31623000D03*
X118745000Y-41783000D03*
X118745000Y-45593000D03*
X118745000Y-55753000D03*
X187452000Y-55372000D03*
X187452000Y-45212000D03*
X184023000Y-40259000D03*
X184023000Y-30099000D03*
X184023000Y-88519000D03*
X184023000Y-78359000D03*
X187833000Y-78359000D03*
X187833000Y-88519000D03*
X183896000Y-45212000D03*
X183896000Y-55372000D03*
X167513000Y-33909000D03*
X167513000Y-44069000D03*
X167513000Y-47879000D03*
X167513000Y-58039000D03*
X236601000Y-54483000D03*
X236601000Y-44323000D03*
X231521000Y-40513000D03*
X231521000Y-30353000D03*
X232791000Y-89408000D03*
X232791000Y-79248000D03*
X236601000Y-79248000D03*
X236601000Y-89408000D03*
X232791000Y-44323000D03*
X232791000Y-54483000D03*
X235331000Y-40513000D03*
X235331000Y-30353000D03*
X216281000Y-34163000D03*
X216281000Y-44323000D03*
X216281000Y-48133000D03*
X216281000Y-58293000D03*
X285369000Y-54610000D03*
X285369000Y-44450000D03*
X281559000Y-40005000D03*
X281559000Y-29845000D03*
X283718000Y-86868000D03*
X283718000Y-76708000D03*
X287528000Y-76708000D03*
X287528000Y-86868000D03*
X282194000Y-44450000D03*
X282194000Y-54610000D03*
X285369000Y-40005000D03*
X285369000Y-29845000D03*
X266319000Y-32385000D03*
X266319000Y-42545000D03*
X266319000Y-45720000D03*
X266319000Y-55880000D03*
X70104000Y-29464000D03*
X70104000Y-39624000D03*
X90424000Y-40894000D03*
X90424000Y-30734000D03*
D23*
X16510000Y-27940000D03*
X16510000Y-92710000D03*
X292100000Y-92710000D03*
X292100000Y-27940000D03*
X152400000Y-93980000D03*
X152400000Y-27940000D03*
D22*
X187833000Y-40259000D03*
X187833000Y-30099000D03*
D11*
X34389060Y-92710000D03*
X39270940Y-92710000D03*
X20499000Y-84673000D03*
X20499000Y-80173000D03*
X26999000Y-84673000D03*
X26999000Y-80173000D03*
D24*
X127635000Y-95123000D03*
X125095000Y-95123000D03*
X130175000Y-95123000D03*
X127635000Y-48133000D03*
X130175000Y-48133000D03*
X125095000Y-48133000D03*
X78994000Y-95504000D03*
X76454000Y-95504000D03*
X81534000Y-95504000D03*
X78994000Y-48514000D03*
X81534000Y-48514000D03*
X76454000Y-48514000D03*
X176403000Y-47879000D03*
X178943000Y-47879000D03*
X173863000Y-47879000D03*
X176403000Y-94869000D03*
X173863000Y-94869000D03*
X178943000Y-94869000D03*
X225171000Y-48133000D03*
X227711000Y-48133000D03*
X222631000Y-48133000D03*
X225171000Y-95123000D03*
X222631000Y-95123000D03*
X227711000Y-95123000D03*
X274574000Y-48260000D03*
X277114000Y-48260000D03*
X272034000Y-48260000D03*
X274701000Y-94869000D03*
X272161000Y-94869000D03*
X277241000Y-94869000D03*
D25*
X244856000Y-94996000D03*
D26*
X247356000Y-94996000D03*
D22*
X244856000Y-92456000D03*
X234696000Y-92456000D03*
D27*
X78994000Y-26162000D03*
X84074000Y-26162000D03*
X127762000Y-26162000D03*
X132842000Y-26162000D03*
X176530000Y-25908000D03*
X181610000Y-25908000D03*
X225044000Y-25908000D03*
X230124000Y-25908000D03*
X274574000Y-25908000D03*
X279654000Y-25908000D03*
D28*
X88011000Y-93472000D03*
X97917000Y-85471000D03*
X123952000Y-85852000D03*
X131445000Y-77343000D03*
X122936000Y-77343000D03*
X227711000Y-92202000D03*
X73660000Y-74930000D03*
X82550000Y-74930000D03*
X94488000Y-44958000D03*
X143764000Y-45720000D03*
X143256000Y-39116000D03*
X139954000Y-42418000D03*
X21336000Y-71882000D03*
X247142000Y-84582000D03*
X143764000Y-88646000D03*
X59690000Y-64008000D03*
X96012000Y-87376000D03*
X115316000Y-87376000D03*
X62611000Y-64008000D03*
X26797000Y-58928000D03*
X31115000Y-60071000D03*
X82169000Y-79883000D03*
X71755000Y-80010000D03*
X131064000Y-87376000D03*
X163576000Y-88392000D03*
X207772000Y-88900000D03*
X260096000Y-80772000D03*
X106553000Y-54737000D03*
X195326000Y-56896000D03*
X169926000Y-46482000D03*
X142748000Y-51054000D03*
X92964000Y-66040000D03*
X98552000Y-66040000D03*
X98552000Y-56134000D03*
X122428000Y-52324000D03*
X72644000Y-50800000D03*
X96266000Y-54610000D03*
X238252000Y-63246000D03*
X238252000Y-67056000D03*
X272542000Y-50800000D03*
X291338000Y-64770000D03*
X288544000Y-57404000D03*
X239776000Y-57912000D03*
X219710000Y-58674000D03*
X110744000Y-70104000D03*
X108204000Y-44196000D03*
X133604000Y-69088000D03*
X82804000Y-70104000D03*
X181864000Y-70612000D03*
X278892000Y-66040000D03*
X230632000Y-68580000D03*
X119253000Y-90424000D03*
X130683000Y-90424000D03*
X124460000Y-56896000D03*
X35560000Y-65532000D03*
X52832000Y-71628000D03*
X60452000Y-85344000D03*
X116332000Y-86360000D03*
X31496000Y-66040000D03*
X64262000Y-58420000D03*
X100076000Y-68072000D03*
X71120000Y-69088000D03*
X82296000Y-90551000D03*
X40640000Y-74676000D03*
X52832000Y-81788000D03*
X72517000Y-90424000D03*
X103124000Y-69088000D03*
X76200000Y-69088000D03*
X30988000Y-68580000D03*
X46228000Y-82804000D03*
X32004000Y-69596000D03*
X36576000Y-70612000D03*
X54356000Y-72644000D03*
X61468000Y-72644000D03*
X166624000Y-72644000D03*
X169164000Y-72644000D03*
X195580000Y-72644000D03*
X180340000Y-89916000D03*
X32004000Y-70612000D03*
X165608000Y-89916000D03*
X174244000Y-57912000D03*
X213868000Y-73660000D03*
X35560000Y-71628000D03*
X56388000Y-73660000D03*
X59436000Y-73660000D03*
X240792000Y-72644000D03*
X220980000Y-73660000D03*
X229108000Y-90932000D03*
X29972000Y-71628000D03*
X263017000Y-70739000D03*
X36068000Y-74168000D03*
X56388000Y-84328000D03*
X58420000Y-84328000D03*
X271272000Y-74168000D03*
X279908000Y-79248000D03*
X35560000Y-75184000D03*
X277876000Y-88900000D03*
X59944000Y-91440000D03*
X51308000Y-64008000D03*
X256032000Y-86360000D03*
X262128000Y-81280000D03*
X51816000Y-62992000D03*
X209296000Y-84328000D03*
X47244000Y-66548000D03*
X52324000Y-66548000D03*
X59436000Y-75184000D03*
X201676000Y-74676000D03*
X165100000Y-81280000D03*
X64008000Y-81280000D03*
X114808000Y-81280000D03*
X131064000Y-80772000D03*
X118364000Y-80772000D03*
X75184000Y-45720000D03*
X41656000Y-59436000D03*
X284988000Y-62992000D03*
X41148000Y-58928000D03*
X40640000Y-64008000D03*
X234188000Y-64516000D03*
X40132000Y-58420000D03*
X240792000Y-52832000D03*
X39624000Y-63500000D03*
X187960000Y-63500000D03*
X39116000Y-58420000D03*
X59436000Y-60198000D03*
X139192000Y-62484000D03*
X141986000Y-43688000D03*
X38100000Y-59944000D03*
X88646000Y-61722000D03*
X60706000Y-59182000D03*
X227584000Y-40640000D03*
X229108000Y-54864000D03*
X285750000Y-64770000D03*
X283210000Y-62738000D03*
X82296000Y-54864000D03*
X132588000Y-55880000D03*
X109474000Y-62484000D03*
X33782000Y-61976000D03*
X147320000Y-67564000D03*
X122936000Y-67564000D03*
X93853000Y-78486000D03*
X43434000Y-78740000D03*
X60960000Y-78486000D03*
X56134000Y-78486000D03*
X109093000Y-71501000D03*
X99441000Y-71247000D03*
D29*
X76454000Y-94234000D02*
X77216000Y-93472000D01*
X77216000Y-93472000D02*
X88011000Y-93472000D01*
X76454000Y-95504000D02*
X76454000Y-94234000D01*
X123444000Y-85344000D02*
X123952000Y-85852000D01*
X98044000Y-85344000D02*
X123444000Y-85344000D01*
X97917000Y-85471000D02*
X98044000Y-85344000D01*
X123952000Y-85852000D02*
X134874000Y-85852000D01*
X134874000Y-85852000D02*
X135255000Y-86233000D01*
D30*
X122936000Y-77343000D02*
X131445000Y-77343000D01*
D29*
X222631000Y-95123000D02*
X222631000Y-93345000D01*
X223774000Y-92202000D02*
X227711000Y-92202000D01*
X222631000Y-93345000D02*
X223774000Y-92202000D01*
X20499000Y-84673000D02*
X22352000Y-82820000D01*
X22352000Y-72898000D02*
X21336000Y-71882000D01*
X22352000Y-82820000D02*
X22352000Y-72898000D01*
D30*
X82550000Y-74930000D02*
X73660000Y-74930000D01*
X90424000Y-44704000D02*
X94234000Y-44704000D01*
X94234000Y-44704000D02*
X94488000Y-44958000D01*
X139065000Y-45593000D02*
X143637000Y-45593000D01*
X143637000Y-45593000D02*
X143764000Y-45720000D01*
X139954000Y-42418000D02*
X143256000Y-39116000D01*
D29*
X21336000Y-69596000D02*
X16764000Y-65024000D01*
X21336000Y-71882000D02*
X21336000Y-69596000D01*
X14097000Y-69850000D02*
X14097000Y-67691000D01*
X14097000Y-67691000D02*
X16764000Y-65024000D01*
D31*
X260096000Y-80772000D02*
X257683000Y-80772000D01*
X253873000Y-84582000D02*
X257683000Y-80772000D01*
X253873000Y-84582000D02*
X247142000Y-84582000D01*
X184023000Y-88519000D02*
X184023000Y-89027000D01*
X184023000Y-89027000D02*
X185928000Y-90932000D01*
X201803000Y-88900000D02*
X207772000Y-88900000D01*
X199771000Y-90932000D02*
X201803000Y-88900000D01*
X185928000Y-90932000D02*
X199771000Y-90932000D01*
X144018000Y-88392000D02*
X163576000Y-88392000D01*
X143764000Y-88646000D02*
X144018000Y-88392000D01*
X59690000Y-64008000D02*
X62611000Y-64008000D01*
X115316000Y-87376000D02*
X96012000Y-87376000D01*
X27940000Y-60071000D02*
X26797000Y-58928000D01*
X31115000Y-60071000D02*
X27940000Y-60071000D01*
X82169000Y-79883000D02*
X71882000Y-79883000D01*
X71882000Y-79883000D02*
X71755000Y-80010000D01*
X131064000Y-87376000D02*
X115316000Y-87376000D01*
X184023000Y-88519000D02*
X163703000Y-88519000D01*
X163703000Y-88519000D02*
X163576000Y-88392000D01*
X232791000Y-89408000D02*
X208280000Y-89408000D01*
X208280000Y-89408000D02*
X207772000Y-88900000D01*
D30*
X283718000Y-86868000D02*
X266192000Y-86868000D01*
X266192000Y-86868000D02*
X260096000Y-80772000D01*
D32*
X57404000Y-26924000D02*
X65024000Y-26924000D01*
D31*
X92964000Y-66040000D02*
X98552000Y-66040000D01*
X238252000Y-67056000D02*
X238252000Y-63246000D01*
X291338000Y-58928000D02*
X288798000Y-56388000D01*
X291338000Y-64770000D02*
X291338000Y-58928000D01*
D33*
X57404000Y-26924000D02*
X53594000Y-30734000D01*
X23749000Y-32639000D02*
X23749000Y-34544000D01*
X25654000Y-30734000D02*
X23749000Y-32639000D01*
X53594000Y-30734000D02*
X25654000Y-30734000D01*
D30*
X20499000Y-80173000D02*
X19812000Y-79486000D01*
X19812000Y-79486000D02*
X19812000Y-70612000D01*
X19050000Y-69850000D02*
X16637000Y-69850000D01*
X19050000Y-69850000D02*
X19812000Y-70612000D01*
D31*
X37084000Y-34544000D02*
X98552000Y-34544000D01*
X98552000Y-34544000D02*
X108204000Y-44196000D01*
X133604000Y-69088000D02*
X133604000Y-70612000D01*
X128016000Y-70104000D02*
X110744000Y-70104000D01*
X128524000Y-70612000D02*
X128016000Y-70104000D01*
X133604000Y-70612000D02*
X128524000Y-70612000D01*
X110744000Y-70104000D02*
X82804000Y-70104000D01*
X181864000Y-70612000D02*
X133604000Y-70612000D01*
X230632000Y-68580000D02*
X230632000Y-69088000D01*
X195580000Y-70612000D02*
X181864000Y-70612000D01*
X197612000Y-72644000D02*
X195580000Y-70612000D01*
X227076000Y-72644000D02*
X197612000Y-72644000D01*
X230632000Y-69088000D02*
X227076000Y-72644000D01*
X242824000Y-66040000D02*
X278892000Y-66040000D01*
X240284000Y-68580000D02*
X242824000Y-66040000D01*
X230632000Y-68580000D02*
X240284000Y-68580000D01*
D30*
X130683000Y-90424000D02*
X119253000Y-90424000D01*
X146304000Y-52832000D02*
X148844000Y-52832000D01*
X145288000Y-53848000D02*
X146304000Y-52832000D01*
X127508000Y-53848000D02*
X145288000Y-53848000D01*
X124460000Y-56896000D02*
X127508000Y-53848000D01*
X39624000Y-65532000D02*
X35560000Y-65532000D01*
X45720000Y-71628000D02*
X39624000Y-65532000D01*
X52832000Y-71628000D02*
X45720000Y-71628000D01*
X62484000Y-87376000D02*
X60452000Y-85344000D01*
X84328000Y-87376000D02*
X62484000Y-87376000D01*
X84836000Y-87884000D02*
X84328000Y-87376000D01*
X93472000Y-87884000D02*
X84836000Y-87884000D01*
X94996000Y-86360000D02*
X93472000Y-87884000D01*
X116332000Y-86360000D02*
X94996000Y-86360000D01*
X62992000Y-58420000D02*
X64262000Y-58420000D01*
X62992000Y-58420000D02*
X45720000Y-58420000D01*
X45720000Y-58420000D02*
X43180000Y-60960000D01*
X43180000Y-60960000D02*
X33020000Y-60960000D01*
X33020000Y-60960000D02*
X30480000Y-63500000D01*
X30480000Y-63500000D02*
X30480000Y-65024000D01*
X30480000Y-65024000D02*
X31496000Y-66040000D01*
X72136000Y-68072000D02*
X100076000Y-68072000D01*
X71120000Y-69088000D02*
X72136000Y-68072000D01*
X72644000Y-90551000D02*
X72517000Y-90424000D01*
X82296000Y-90551000D02*
X72644000Y-90551000D01*
X45720000Y-74676000D02*
X40640000Y-74676000D01*
X52832000Y-81788000D02*
X45720000Y-74676000D01*
X76200000Y-69088000D02*
X103124000Y-69088000D01*
X59309000Y-92964000D02*
X59309000Y-93599000D01*
X59309000Y-93599000D02*
X57912000Y-94996000D01*
X57912000Y-94996000D02*
X47752000Y-94996000D01*
X47752000Y-94996000D02*
X30988000Y-78232000D01*
X30988000Y-78232000D02*
X30988000Y-68580000D01*
X46228000Y-82804000D02*
X36576000Y-73152000D01*
X36576000Y-73152000D02*
X35052000Y-73152000D01*
X35052000Y-73152000D02*
X34036000Y-72136000D01*
X34036000Y-72136000D02*
X34036000Y-71628000D01*
X34036000Y-71628000D02*
X32004000Y-69596000D01*
X38100000Y-70612000D02*
X36576000Y-70612000D01*
X40132000Y-72644000D02*
X38100000Y-70612000D01*
X54356000Y-72644000D02*
X40132000Y-72644000D01*
X83312000Y-72644000D02*
X61468000Y-72644000D01*
X109728000Y-72644000D02*
X83312000Y-72644000D01*
X149352000Y-72644000D02*
X109728000Y-72644000D01*
X166624000Y-72644000D02*
X149352000Y-72644000D01*
X195580000Y-72644000D02*
X169164000Y-72644000D01*
X180340000Y-89916000D02*
X165608000Y-89916000D01*
X33020000Y-71628000D02*
X32004000Y-70612000D01*
X33020000Y-77724000D02*
X33020000Y-71628000D01*
X45720000Y-90424000D02*
X33020000Y-77724000D01*
X66040000Y-90424000D02*
X45720000Y-90424000D01*
X67056000Y-91440000D02*
X66040000Y-90424000D01*
X67564000Y-91440000D02*
X67056000Y-91440000D01*
X85344000Y-91440000D02*
X67564000Y-91440000D01*
X140208000Y-91440000D02*
X85344000Y-91440000D01*
X141732000Y-89916000D02*
X140208000Y-91440000D01*
X165608000Y-89916000D02*
X141732000Y-89916000D01*
X196596000Y-52832000D02*
X199136000Y-52832000D01*
X191516000Y-57912000D02*
X196596000Y-52832000D01*
X174244000Y-57912000D02*
X191516000Y-57912000D01*
X194564000Y-73660000D02*
X149352000Y-73660000D01*
X213868000Y-73660000D02*
X194564000Y-73660000D01*
X37592000Y-71628000D02*
X35560000Y-71628000D01*
X39624000Y-73660000D02*
X37592000Y-71628000D01*
X56388000Y-73660000D02*
X39624000Y-73660000D01*
X82804000Y-73660000D02*
X59436000Y-73660000D01*
X109220000Y-73660000D02*
X82804000Y-73660000D01*
X149352000Y-73660000D02*
X109220000Y-73660000D01*
X239268000Y-72644000D02*
X240792000Y-72644000D01*
X238252000Y-73660000D02*
X239268000Y-72644000D01*
X220980000Y-73660000D02*
X238252000Y-73660000D01*
X234696000Y-92456000D02*
X230632000Y-92456000D01*
X230632000Y-92456000D02*
X229108000Y-90932000D01*
X203327000Y-90932000D02*
X201549000Y-92710000D01*
X183515000Y-92710000D02*
X181737000Y-90932000D01*
X201549000Y-92710000D02*
X183515000Y-92710000D01*
X229108000Y-90932000D02*
X212852000Y-90932000D01*
X212852000Y-90932000D02*
X203327000Y-90932000D01*
X181737000Y-90932000D02*
X142240000Y-90932000D01*
X142240000Y-90932000D02*
X140716000Y-92456000D01*
X140716000Y-92456000D02*
X69088000Y-92456000D01*
X69088000Y-92456000D02*
X65532000Y-96012000D01*
X65532000Y-96012000D02*
X47244000Y-96012000D01*
X47244000Y-96012000D02*
X29972000Y-78740000D01*
X29972000Y-78740000D02*
X29972000Y-71628000D01*
X244856000Y-85344000D02*
X258826000Y-71374000D01*
X262382000Y-71374000D02*
X263017000Y-70739000D01*
X258826000Y-71374000D02*
X262382000Y-71374000D01*
X46228000Y-84328000D02*
X36068000Y-74168000D01*
X56388000Y-84328000D02*
X46228000Y-84328000D01*
X141224000Y-84328000D02*
X58420000Y-84328000D01*
X141732000Y-84836000D02*
X141224000Y-84328000D01*
X192532000Y-84836000D02*
X141732000Y-84836000D01*
X193040000Y-85344000D02*
X192532000Y-84836000D01*
X210820000Y-85344000D02*
X193040000Y-85344000D01*
X244856000Y-85344000D02*
X210820000Y-85344000D01*
X271526000Y-73914000D02*
X293497000Y-73914000D01*
X271272000Y-74168000D02*
X271526000Y-73914000D01*
X263144000Y-88900000D02*
X277876000Y-88900000D01*
X263144000Y-88900000D02*
X261620000Y-87376000D01*
X261620000Y-87376000D02*
X191516000Y-87376000D01*
X191516000Y-87376000D02*
X191008000Y-86868000D01*
X191008000Y-86868000D02*
X143764000Y-86868000D01*
X143764000Y-86868000D02*
X141224000Y-89408000D01*
X141224000Y-89408000D02*
X49784000Y-89408000D01*
X49784000Y-89408000D02*
X35560000Y-75184000D01*
X294894000Y-71374000D02*
X293497000Y-71374000D01*
X295656000Y-72136000D02*
X294894000Y-71374000D01*
X295656000Y-75692000D02*
X295656000Y-72136000D01*
X292100000Y-79248000D02*
X295656000Y-75692000D01*
X279908000Y-79248000D02*
X292100000Y-79248000D01*
X64389000Y-92964000D02*
X64389000Y-91821000D01*
X64008000Y-91440000D02*
X59944000Y-91440000D01*
X64389000Y-91821000D02*
X64008000Y-91440000D01*
X57404000Y-70104000D02*
X51308000Y-64008000D01*
X57404000Y-84836000D02*
X57404000Y-70104000D01*
X60960000Y-88392000D02*
X57404000Y-84836000D01*
X140970000Y-88392000D02*
X60960000Y-88392000D01*
X143510000Y-85852000D02*
X140970000Y-88392000D01*
X191516000Y-85852000D02*
X143510000Y-85852000D01*
X192024000Y-86360000D02*
X191516000Y-85852000D01*
X230632000Y-86360000D02*
X192024000Y-86360000D01*
X256032000Y-86360000D02*
X230632000Y-86360000D01*
X274320000Y-69088000D02*
X293243000Y-69088000D01*
X262128000Y-81280000D02*
X274320000Y-69088000D01*
X293243000Y-69088000D02*
X293497000Y-68834000D01*
X209296000Y-84328000D02*
X194056000Y-84328000D01*
X58420000Y-69596000D02*
X51816000Y-62992000D01*
X58420000Y-81280000D02*
X58420000Y-69596000D01*
X60452000Y-83312000D02*
X58420000Y-81280000D01*
X142240000Y-83312000D02*
X60452000Y-83312000D01*
X142748000Y-83820000D02*
X142240000Y-83312000D01*
X193548000Y-83820000D02*
X142748000Y-83820000D01*
X194056000Y-84328000D02*
X193548000Y-83820000D01*
X244348000Y-73660000D02*
X240284000Y-73660000D01*
X221996000Y-84328000D02*
X209296000Y-84328000D01*
X229616000Y-76708000D02*
X221996000Y-84328000D01*
X237236000Y-76708000D02*
X229616000Y-76708000D01*
X240284000Y-73660000D02*
X237236000Y-76708000D01*
X165100000Y-81280000D02*
X164084000Y-81280000D01*
X52324000Y-66548000D02*
X47244000Y-66548000D01*
X59436000Y-80264000D02*
X59436000Y-75184000D01*
X61468000Y-82296000D02*
X59436000Y-80264000D01*
X81280000Y-82296000D02*
X61468000Y-82296000D01*
X104648000Y-82296000D02*
X81280000Y-82296000D01*
X163068000Y-82296000D02*
X104648000Y-82296000D01*
X164084000Y-81280000D02*
X163068000Y-82296000D01*
X194056000Y-82296000D02*
X201676000Y-74676000D01*
X166116000Y-82296000D02*
X194056000Y-82296000D01*
X165100000Y-81280000D02*
X166116000Y-82296000D01*
X68707000Y-81280000D02*
X64008000Y-81280000D01*
X80264000Y-81280000D02*
X68707000Y-81280000D01*
X68707000Y-81280000D02*
X68580000Y-81280000D01*
X114808000Y-81280000D02*
X80264000Y-81280000D01*
X118364000Y-80772000D02*
X131064000Y-80772000D01*
X85344000Y-48260000D02*
X100076000Y-48260000D01*
X82804000Y-45720000D02*
X85344000Y-48260000D01*
X75184000Y-45720000D02*
X82804000Y-45720000D01*
X43688000Y-57404000D02*
X41656000Y-59436000D01*
X90424000Y-57404000D02*
X43688000Y-57404000D01*
X93980000Y-60960000D02*
X90424000Y-57404000D01*
X282956000Y-60960000D02*
X93980000Y-60960000D01*
X284988000Y-62992000D02*
X282956000Y-60960000D01*
X266319000Y-45720000D02*
X254508000Y-45720000D01*
X41148000Y-58420000D02*
X41148000Y-58928000D01*
X43180000Y-56388000D02*
X41148000Y-58420000D01*
X66548000Y-56388000D02*
X43180000Y-56388000D01*
X90932000Y-56388000D02*
X66548000Y-56388000D01*
X94488000Y-59944000D02*
X90932000Y-56388000D01*
X240284000Y-59944000D02*
X94488000Y-59944000D01*
X254508000Y-45720000D02*
X240284000Y-59944000D01*
X266319000Y-45720000D02*
X266319000Y-46863000D01*
X291338000Y-66294000D02*
X293497000Y-66294000D01*
X290068000Y-65024000D02*
X291338000Y-66294000D01*
X290068000Y-61468000D02*
X290068000Y-65024000D01*
X286512000Y-57912000D02*
X290068000Y-61468000D01*
X277368000Y-57912000D02*
X286512000Y-57912000D01*
X266319000Y-46863000D02*
X277368000Y-57912000D01*
X109220000Y-64516000D02*
X108458000Y-65278000D01*
X108458000Y-65278000D02*
X90170000Y-65278000D01*
X46228000Y-64008000D02*
X40640000Y-64008000D01*
X48768000Y-61468000D02*
X46228000Y-64008000D01*
X52324000Y-61468000D02*
X48768000Y-61468000D01*
X57912000Y-67056000D02*
X52324000Y-61468000D01*
X88392000Y-67056000D02*
X57912000Y-67056000D01*
X90170000Y-65278000D02*
X88392000Y-67056000D01*
X150876000Y-64516000D02*
X109220000Y-64516000D01*
X199644000Y-64516000D02*
X150876000Y-64516000D01*
X234188000Y-64516000D02*
X199644000Y-64516000D01*
X216281000Y-48133000D02*
X216281000Y-48895000D01*
X216281000Y-48895000D02*
X206248000Y-58928000D01*
X40132000Y-57912000D02*
X40132000Y-58420000D01*
X42672000Y-55372000D02*
X40132000Y-57912000D01*
X72136000Y-55372000D02*
X42672000Y-55372000D01*
X74676000Y-52832000D02*
X72136000Y-55372000D01*
X91948000Y-52832000D02*
X74676000Y-52832000D01*
X92964000Y-53848000D02*
X91948000Y-52832000D01*
X92964000Y-55880000D02*
X92964000Y-53848000D01*
X96012000Y-58928000D02*
X92964000Y-55880000D01*
X163068000Y-58928000D02*
X96012000Y-58928000D01*
X165608000Y-56388000D02*
X163068000Y-58928000D01*
X169164000Y-56388000D02*
X165608000Y-56388000D01*
X171704000Y-58928000D02*
X169164000Y-56388000D01*
X206248000Y-58928000D02*
X171704000Y-58928000D01*
X240792000Y-52832000D02*
X239776000Y-51816000D01*
X239776000Y-51816000D02*
X219964000Y-51816000D01*
X219964000Y-51816000D02*
X216281000Y-48133000D01*
X108966000Y-63500000D02*
X107950000Y-64516000D01*
X107950000Y-64516000D02*
X88900000Y-64516000D01*
X40132000Y-62992000D02*
X39624000Y-63500000D01*
X45720000Y-62992000D02*
X40132000Y-62992000D01*
X48260000Y-60452000D02*
X45720000Y-62992000D01*
X52832000Y-60452000D02*
X48260000Y-60452000D01*
X58420000Y-66040000D02*
X52832000Y-60452000D01*
X87376000Y-66040000D02*
X58420000Y-66040000D01*
X88900000Y-64516000D02*
X87376000Y-66040000D01*
X113284000Y-63500000D02*
X108966000Y-63500000D01*
X143764000Y-63500000D02*
X113284000Y-63500000D01*
X180340000Y-63500000D02*
X143764000Y-63500000D01*
X187960000Y-63500000D02*
X180340000Y-63500000D01*
X167513000Y-47879000D02*
X168783000Y-47879000D01*
X197104000Y-47752000D02*
X199136000Y-47752000D01*
X194056000Y-50800000D02*
X197104000Y-47752000D01*
X171704000Y-50800000D02*
X194056000Y-50800000D01*
X168783000Y-47879000D02*
X171704000Y-50800000D01*
X57404000Y-54356000D02*
X42164000Y-54356000D01*
X167513000Y-51943000D02*
X161544000Y-57912000D01*
X161544000Y-57912000D02*
X97028000Y-57912000D01*
X97028000Y-57912000D02*
X93980000Y-54864000D01*
X93980000Y-54864000D02*
X93980000Y-53340000D01*
X93980000Y-53340000D02*
X92456000Y-51816000D01*
X92456000Y-51816000D02*
X74168000Y-51816000D01*
X74168000Y-51816000D02*
X71628000Y-54356000D01*
X71628000Y-54356000D02*
X57404000Y-54356000D01*
X167513000Y-47879000D02*
X167513000Y-51943000D01*
X39116000Y-57404000D02*
X39116000Y-58420000D01*
X42164000Y-54356000D02*
X39116000Y-57404000D01*
X85344000Y-60198000D02*
X87884000Y-62738000D01*
X59436000Y-60198000D02*
X85344000Y-60198000D01*
X138430000Y-61722000D02*
X139192000Y-62484000D01*
X95504000Y-61722000D02*
X138430000Y-61722000D01*
X94488000Y-62738000D02*
X95504000Y-61722000D01*
X87884000Y-62738000D02*
X94488000Y-62738000D01*
X118745000Y-45593000D02*
X107569000Y-45593000D01*
X38100000Y-56896000D02*
X38100000Y-59944000D01*
X41656000Y-53340000D02*
X38100000Y-56896000D01*
X51816000Y-53340000D02*
X41656000Y-53340000D01*
X67564000Y-37592000D02*
X51816000Y-53340000D01*
X99568000Y-37592000D02*
X67564000Y-37592000D01*
X107569000Y-45593000D02*
X99568000Y-37592000D01*
X118745000Y-45593000D02*
X119634000Y-44704000D01*
X119634000Y-44704000D02*
X131064000Y-44704000D01*
X131064000Y-44704000D02*
X132080000Y-43688000D01*
X132080000Y-43688000D02*
X141986000Y-43688000D01*
X86106000Y-59182000D02*
X88646000Y-61722000D01*
X60706000Y-59182000D02*
X86106000Y-59182000D01*
X70104000Y-42799000D02*
X71247000Y-42799000D01*
X98044000Y-45720000D02*
X100076000Y-45720000D01*
X94996000Y-42672000D02*
X98044000Y-45720000D01*
X71374000Y-42672000D02*
X94996000Y-42672000D01*
X71247000Y-42799000D02*
X71374000Y-42672000D01*
X135255000Y-45593000D02*
X128143000Y-45593000D01*
X127635000Y-46101000D02*
X127635000Y-48133000D01*
X128143000Y-45593000D02*
X127635000Y-46101000D01*
X232791000Y-44323000D02*
X231267000Y-44323000D01*
X231267000Y-44323000D02*
X227584000Y-40640000D01*
X232791000Y-54483000D02*
X229489000Y-54483000D01*
X229489000Y-54483000D02*
X229108000Y-54864000D01*
X283718000Y-76708000D02*
X287528000Y-76708000D01*
X285242000Y-64770000D02*
X285750000Y-64770000D01*
X283210000Y-62738000D02*
X285242000Y-64770000D01*
X82296000Y-54864000D02*
X86614000Y-54864000D01*
X132715000Y-55753000D02*
X135255000Y-55753000D01*
X132588000Y-55880000D02*
X132715000Y-55753000D01*
X39624000Y-61976000D02*
X33782000Y-61976000D01*
X109474000Y-62484000D02*
X105156000Y-62484000D01*
X45212000Y-61976000D02*
X39624000Y-61976000D01*
X47752000Y-59436000D02*
X45212000Y-61976000D01*
X53340000Y-59436000D02*
X47752000Y-59436000D01*
X56388000Y-62484000D02*
X53340000Y-59436000D01*
X62230000Y-62484000D02*
X56388000Y-62484000D01*
X105156000Y-62484000D02*
X96012000Y-62484000D01*
X96012000Y-62738000D02*
X94996000Y-63754000D01*
X94996000Y-63754000D02*
X63500000Y-63754000D01*
X63500000Y-63754000D02*
X62230000Y-62484000D01*
X96012000Y-62484000D02*
X96012000Y-62738000D01*
X122936000Y-67564000D02*
X147320000Y-67564000D01*
X93980000Y-78486000D02*
X93853000Y-78486000D01*
X93853000Y-78486000D02*
X60960000Y-78486000D01*
X56134000Y-78486000D02*
X55118000Y-79502000D01*
X55118000Y-79502000D02*
X55118000Y-82296000D01*
X55118000Y-82296000D02*
X53543202Y-83870798D01*
X53543202Y-83870798D02*
X49580798Y-83870798D01*
X49580798Y-83870798D02*
X44450000Y-78740000D01*
X44450000Y-78740000D02*
X43434000Y-78740000D01*
X99695000Y-71501000D02*
X109093000Y-71501000D01*
X99441000Y-71247000D02*
X99695000Y-71501000D01*
X244856000Y-94996000D02*
X227838000Y-94996000D01*
X227838000Y-94996000D02*
X227711000Y-95123000D01*
X244856000Y-92456000D02*
X244856000Y-94996000D01*
D34*
G36*
X77916369Y-24423905D02*
X77586008Y-24918326D01*
X77470000Y-25501536D01*
X77470000Y-26822464D01*
X77586008Y-27405674D01*
X77916369Y-27900095D01*
X78410790Y-28230456D01*
X78994000Y-28346464D01*
X79577210Y-28230456D01*
X80071631Y-27900095D01*
X80401992Y-27405674D01*
X80518000Y-26822464D01*
X80518000Y-25501536D01*
X80401992Y-24918326D01*
X80071631Y-24423905D01*
X79821840Y-24257000D01*
X83246160Y-24257000D01*
X82996369Y-24423905D01*
X82666008Y-24918326D01*
X82550000Y-25501536D01*
X82550000Y-26822464D01*
X82666008Y-27405674D01*
X82996369Y-27900095D01*
X83490790Y-28230456D01*
X84074000Y-28346464D01*
X84657210Y-28230456D01*
X85151631Y-27900095D01*
X85481992Y-27405674D01*
X85598000Y-26822464D01*
X85598000Y-25501536D01*
X85481992Y-24918326D01*
X85151631Y-24423905D01*
X84901840Y-24257000D01*
X126934160Y-24257000D01*
X126684369Y-24423905D01*
X126354008Y-24918326D01*
X126238000Y-25501536D01*
X126238000Y-26822464D01*
X126354008Y-27405674D01*
X126684369Y-27900095D01*
X127178790Y-28230456D01*
X127762000Y-28346464D01*
X128345210Y-28230456D01*
X128839631Y-27900095D01*
X129169992Y-27405674D01*
X129286000Y-26822464D01*
X129286000Y-25501536D01*
X129169992Y-24918326D01*
X128839631Y-24423905D01*
X128589840Y-24257000D01*
X132014160Y-24257000D01*
X131764369Y-24423905D01*
X131434008Y-24918326D01*
X131318000Y-25501536D01*
X131318000Y-26822464D01*
X131434008Y-27405674D01*
X131764369Y-27900095D01*
X132258790Y-28230456D01*
X132842000Y-28346464D01*
X133425210Y-28230456D01*
X133919631Y-27900095D01*
X134249992Y-27405674D01*
X134366000Y-26822464D01*
X134366000Y-25501536D01*
X134249992Y-24918326D01*
X133919631Y-24423905D01*
X133669840Y-24257000D01*
X175394174Y-24257000D01*
X175122008Y-24664326D01*
X175006000Y-25247536D01*
X175006000Y-26568464D01*
X175122008Y-27151674D01*
X175452369Y-27646095D01*
X175946790Y-27976456D01*
X176530000Y-28092464D01*
X177113210Y-27976456D01*
X177607631Y-27646095D01*
X177937992Y-27151674D01*
X178054000Y-26568464D01*
X178054000Y-25247536D01*
X177937992Y-24664326D01*
X177665826Y-24257000D01*
X180474174Y-24257000D01*
X180202008Y-24664326D01*
X180086000Y-25247536D01*
X180086000Y-26568464D01*
X180202008Y-27151674D01*
X180532369Y-27646095D01*
X181026790Y-27976456D01*
X181610000Y-28092464D01*
X182193210Y-27976456D01*
X182687631Y-27646095D01*
X183017992Y-27151674D01*
X183134000Y-26568464D01*
X183134000Y-25247536D01*
X183017992Y-24664326D01*
X182745826Y-24257000D01*
X223908174Y-24257000D01*
X223636008Y-24664326D01*
X223520000Y-25247536D01*
X223520000Y-26568464D01*
X223636008Y-27151674D01*
X223966369Y-27646095D01*
X224460790Y-27976456D01*
X225044000Y-28092464D01*
X225627210Y-27976456D01*
X226121631Y-27646095D01*
X226451992Y-27151674D01*
X226568000Y-26568464D01*
X226568000Y-25247536D01*
X226451992Y-24664326D01*
X226179826Y-24257000D01*
X228988174Y-24257000D01*
X228716008Y-24664326D01*
X228600000Y-25247536D01*
X228600000Y-26568464D01*
X228716008Y-27151674D01*
X229046369Y-27646095D01*
X229540790Y-27976456D01*
X230124000Y-28092464D01*
X230707210Y-27976456D01*
X231201631Y-27646095D01*
X231531992Y-27151674D01*
X231648000Y-26568464D01*
X231648000Y-25247536D01*
X231531992Y-24664326D01*
X231259826Y-24257000D01*
X273438174Y-24257000D01*
X273166008Y-24664326D01*
X273050000Y-25247536D01*
X273050000Y-26568464D01*
X273166008Y-27151674D01*
X273496369Y-27646095D01*
X273990790Y-27976456D01*
X274574000Y-28092464D01*
X275157210Y-27976456D01*
X275651631Y-27646095D01*
X275981992Y-27151674D01*
X276098000Y-26568464D01*
X276098000Y-25247536D01*
X275981992Y-24664326D01*
X275709826Y-24257000D01*
X278518174Y-24257000D01*
X278246008Y-24664326D01*
X278130000Y-25247536D01*
X278130000Y-26568464D01*
X278246008Y-27151674D01*
X278576369Y-27646095D01*
X279070790Y-27976456D01*
X279654000Y-28092464D01*
X280237210Y-27976456D01*
X280731631Y-27646095D01*
X281061992Y-27151674D01*
X281178000Y-26568464D01*
X281178000Y-25247536D01*
X281061992Y-24664326D01*
X280789826Y-24257000D01*
X289433000Y-24257000D01*
X289433000Y-27938818D01*
X289432538Y-28468172D01*
X289433000Y-28469290D01*
X289433000Y-59719448D01*
X287068776Y-57355224D01*
X286813325Y-57184537D01*
X286512000Y-57124600D01*
X277694152Y-57124600D01*
X275503246Y-54933694D01*
X280559226Y-54933694D01*
X280807538Y-55534655D01*
X281266927Y-55994846D01*
X281867453Y-56244206D01*
X282517694Y-56244774D01*
X283118655Y-55996462D01*
X283578846Y-55537073D01*
X283781691Y-55048568D01*
X283982538Y-55534655D01*
X284441927Y-55994846D01*
X285042453Y-56244206D01*
X285692694Y-56244774D01*
X286293655Y-55996462D01*
X286753846Y-55537073D01*
X287003206Y-54936547D01*
X287003774Y-54286306D01*
X286755462Y-53685345D01*
X286296073Y-53225154D01*
X285695547Y-52975794D01*
X285045306Y-52975226D01*
X284444345Y-53223538D01*
X283984154Y-53682927D01*
X283781309Y-54171432D01*
X283580462Y-53685345D01*
X283121073Y-53225154D01*
X282520547Y-52975794D01*
X281870306Y-52975226D01*
X281269345Y-53223538D01*
X280809154Y-53682927D01*
X280559794Y-54283453D01*
X280559226Y-54933694D01*
X275503246Y-54933694D01*
X268538231Y-47968679D01*
X270383000Y-47968679D01*
X270383000Y-48551321D01*
X270508675Y-49183131D01*
X270866567Y-49718754D01*
X271402190Y-50076646D01*
X272034000Y-50202321D01*
X272665810Y-50076646D01*
X273201433Y-49718754D01*
X273304000Y-49565252D01*
X273406567Y-49718754D01*
X273942190Y-50076646D01*
X274574000Y-50202321D01*
X275205810Y-50076646D01*
X275741433Y-49718754D01*
X275858054Y-49544219D01*
X276036370Y-49771236D01*
X276599523Y-50087926D01*
X276731056Y-50119975D01*
X276987000Y-50000836D01*
X276987000Y-48387000D01*
X277241000Y-48387000D01*
X277241000Y-50000836D01*
X277496944Y-50119975D01*
X277628477Y-50087926D01*
X278191630Y-49771236D01*
X278590724Y-49263143D01*
X278765000Y-48641000D01*
X278765000Y-48387000D01*
X277241000Y-48387000D01*
X276987000Y-48387000D01*
X276967000Y-48387000D01*
X276967000Y-48133000D01*
X276987000Y-48133000D01*
X276987000Y-46519164D01*
X277241000Y-46519164D01*
X277241000Y-48133000D01*
X278765000Y-48133000D01*
X278765000Y-47879000D01*
X278590724Y-47256857D01*
X278191630Y-46748764D01*
X277628477Y-46432074D01*
X277496944Y-46400025D01*
X277241000Y-46519164D01*
X276987000Y-46519164D01*
X276731056Y-46400025D01*
X276599523Y-46432074D01*
X276036370Y-46748764D01*
X275858054Y-46975781D01*
X275741433Y-46801246D01*
X275205810Y-46443354D01*
X274574000Y-46317679D01*
X273942190Y-46443354D01*
X273406567Y-46801246D01*
X273304000Y-46954748D01*
X273201433Y-46801246D01*
X272665810Y-46443354D01*
X272034000Y-46317679D01*
X271402190Y-46443354D01*
X270866567Y-46801246D01*
X270508675Y-47336869D01*
X270383000Y-47968679D01*
X268538231Y-47968679D01*
X267460023Y-46890471D01*
X267703846Y-46647073D01*
X267953206Y-46046547D01*
X267953774Y-45396306D01*
X267705462Y-44795345D01*
X267683849Y-44773694D01*
X280559226Y-44773694D01*
X280807538Y-45374655D01*
X281266927Y-45834846D01*
X281867453Y-46084206D01*
X282517694Y-46084774D01*
X283118655Y-45836462D01*
X283578846Y-45377073D01*
X283781691Y-44888568D01*
X283982538Y-45374655D01*
X284441927Y-45834846D01*
X285042453Y-46084206D01*
X285692694Y-46084774D01*
X286293655Y-45836462D01*
X286753846Y-45377073D01*
X287003206Y-44776547D01*
X287003774Y-44126306D01*
X286755462Y-43525345D01*
X286296073Y-43065154D01*
X285695547Y-42815794D01*
X285045306Y-42815226D01*
X284444345Y-43063538D01*
X283984154Y-43522927D01*
X283781309Y-44011432D01*
X283580462Y-43525345D01*
X283121073Y-43065154D01*
X282520547Y-42815794D01*
X281870306Y-42815226D01*
X281269345Y-43063538D01*
X280809154Y-43522927D01*
X280559794Y-44123453D01*
X280559226Y-44773694D01*
X267683849Y-44773694D01*
X267246073Y-44335154D01*
X266757568Y-44132309D01*
X267243655Y-43931462D01*
X267703846Y-43472073D01*
X267953206Y-42871547D01*
X267953774Y-42221306D01*
X267705462Y-41620345D01*
X267246073Y-41160154D01*
X266645547Y-40910794D01*
X265995306Y-40910226D01*
X265394345Y-41158538D01*
X264934154Y-41617927D01*
X264684794Y-42218453D01*
X264684226Y-42868694D01*
X264932538Y-43469655D01*
X265391927Y-43929846D01*
X265880432Y-44132691D01*
X265394345Y-44333538D01*
X264934154Y-44792927D01*
X264876157Y-44932600D01*
X254508000Y-44932600D01*
X254206675Y-44992537D01*
X253951224Y-45163224D01*
X239957848Y-59156600D01*
X217692202Y-59156600D01*
X217915206Y-58619547D01*
X217915774Y-57969306D01*
X217667462Y-57368345D01*
X217208073Y-56908154D01*
X216607547Y-56658794D01*
X215957306Y-56658226D01*
X215356345Y-56906538D01*
X214896154Y-57365927D01*
X214646794Y-57966453D01*
X214646226Y-58616694D01*
X214869311Y-59156600D01*
X207132952Y-59156600D01*
X211249495Y-55040057D01*
X228218846Y-55040057D01*
X228353903Y-55366920D01*
X228603764Y-55617218D01*
X228930391Y-55752846D01*
X229284057Y-55753154D01*
X229610920Y-55618097D01*
X229861218Y-55368236D01*
X229901843Y-55270400D01*
X231347825Y-55270400D01*
X231404538Y-55407655D01*
X231863927Y-55867846D01*
X232464453Y-56117206D01*
X233114694Y-56117774D01*
X233715655Y-55869462D01*
X234175846Y-55410073D01*
X234425206Y-54809547D01*
X234425208Y-54806694D01*
X234966226Y-54806694D01*
X235214538Y-55407655D01*
X235673927Y-55867846D01*
X236274453Y-56117206D01*
X236924694Y-56117774D01*
X237525655Y-55869462D01*
X237985846Y-55410073D01*
X238235206Y-54809547D01*
X238235774Y-54159306D01*
X237987462Y-53558345D01*
X237528073Y-53098154D01*
X236927547Y-52848794D01*
X236277306Y-52848226D01*
X235676345Y-53096538D01*
X235216154Y-53555927D01*
X234966794Y-54156453D01*
X234966226Y-54806694D01*
X234425208Y-54806694D01*
X234425774Y-54159306D01*
X234177462Y-53558345D01*
X233718073Y-53098154D01*
X233117547Y-52848794D01*
X232467306Y-52848226D01*
X231866345Y-53096538D01*
X231406154Y-53555927D01*
X231348157Y-53695600D01*
X229489000Y-53695600D01*
X229187675Y-53755537D01*
X228932224Y-53926224D01*
X228849563Y-54008885D01*
X228605080Y-54109903D01*
X228354782Y-54359764D01*
X228219154Y-54686391D01*
X228218846Y-55040057D01*
X211249495Y-55040057D01*
X216521850Y-49767702D01*
X216604694Y-49767774D01*
X216744468Y-49710020D01*
X219407224Y-52372776D01*
X219662675Y-52543463D01*
X219964000Y-52603400D01*
X239449848Y-52603400D01*
X239936885Y-53090437D01*
X240037903Y-53334920D01*
X240287764Y-53585218D01*
X240614391Y-53720846D01*
X240968057Y-53721154D01*
X241294920Y-53586097D01*
X241545218Y-53336236D01*
X241680846Y-53009609D01*
X241681154Y-52655943D01*
X241546097Y-52329080D01*
X241296236Y-52078782D01*
X241050149Y-51976597D01*
X240332776Y-51259224D01*
X240077325Y-51088537D01*
X239776000Y-51028600D01*
X220290152Y-51028600D01*
X217858254Y-48596702D01*
X217915206Y-48459547D01*
X217915745Y-47841679D01*
X220980000Y-47841679D01*
X220980000Y-48424321D01*
X221105675Y-49056131D01*
X221463567Y-49591754D01*
X221999190Y-49949646D01*
X222631000Y-50075321D01*
X223262810Y-49949646D01*
X223798433Y-49591754D01*
X223901000Y-49438252D01*
X224003567Y-49591754D01*
X224539190Y-49949646D01*
X225171000Y-50075321D01*
X225802810Y-49949646D01*
X226338433Y-49591754D01*
X226455054Y-49417219D01*
X226633370Y-49644236D01*
X227196523Y-49960926D01*
X227328056Y-49992975D01*
X227584000Y-49873836D01*
X227584000Y-48260000D01*
X227838000Y-48260000D01*
X227838000Y-49873836D01*
X228093944Y-49992975D01*
X228225477Y-49960926D01*
X228788630Y-49644236D01*
X229187724Y-49136143D01*
X229362000Y-48514000D01*
X229362000Y-48260000D01*
X227838000Y-48260000D01*
X227584000Y-48260000D01*
X227564000Y-48260000D01*
X227564000Y-48006000D01*
X227584000Y-48006000D01*
X227584000Y-46392164D01*
X227838000Y-46392164D01*
X227838000Y-48006000D01*
X229362000Y-48006000D01*
X229362000Y-47752000D01*
X229187724Y-47129857D01*
X228788630Y-46621764D01*
X228225477Y-46305074D01*
X228093944Y-46273025D01*
X227838000Y-46392164D01*
X227584000Y-46392164D01*
X227328056Y-46273025D01*
X227196523Y-46305074D01*
X226633370Y-46621764D01*
X226455054Y-46848781D01*
X226338433Y-46674246D01*
X225802810Y-46316354D01*
X225171000Y-46190679D01*
X224539190Y-46316354D01*
X224003567Y-46674246D01*
X223901000Y-46827748D01*
X223798433Y-46674246D01*
X223262810Y-46316354D01*
X222631000Y-46190679D01*
X221999190Y-46316354D01*
X221463567Y-46674246D01*
X221105675Y-47209869D01*
X220980000Y-47841679D01*
X217915745Y-47841679D01*
X217915774Y-47809306D01*
X217667462Y-47208345D01*
X217208073Y-46748154D01*
X216607547Y-46498794D01*
X215957306Y-46498226D01*
X215356345Y-46746538D01*
X214896154Y-47205927D01*
X214646794Y-47806453D01*
X214646226Y-48456694D01*
X214894538Y-49057655D01*
X214949617Y-49112831D01*
X205921848Y-58140600D01*
X192400952Y-58140600D01*
X196922152Y-53619400D01*
X197709660Y-53619400D01*
X197891585Y-53891670D01*
X197905913Y-53901243D01*
X197884683Y-53905238D01*
X197668559Y-54044310D01*
X197523569Y-54256510D01*
X197472560Y-54508400D01*
X197472560Y-56235600D01*
X197516838Y-56470917D01*
X197655910Y-56687041D01*
X197868110Y-56832031D01*
X198120000Y-56883040D01*
X200152000Y-56883040D01*
X200387317Y-56838762D01*
X200603441Y-56699690D01*
X200748431Y-56487490D01*
X200799440Y-56235600D01*
X200799440Y-54508400D01*
X200755162Y-54273083D01*
X200616090Y-54056959D01*
X200403890Y-53911969D01*
X200362561Y-53903600D01*
X200380415Y-53891670D01*
X200705271Y-53405489D01*
X200819345Y-52832000D01*
X200705271Y-52258511D01*
X200380415Y-51772330D01*
X200065634Y-51562000D01*
X200380415Y-51351670D01*
X200705271Y-50865489D01*
X200819345Y-50292000D01*
X200705271Y-49718511D01*
X200380415Y-49232330D01*
X200065634Y-49022000D01*
X200380415Y-48811670D01*
X200705271Y-48325489D01*
X200819345Y-47752000D01*
X200705271Y-47178511D01*
X200380415Y-46692330D01*
X200065634Y-46482000D01*
X200380415Y-46271670D01*
X200705271Y-45785489D01*
X200819345Y-45212000D01*
X200706899Y-44646694D01*
X214646226Y-44646694D01*
X214894538Y-45247655D01*
X215353927Y-45707846D01*
X215954453Y-45957206D01*
X216604694Y-45957774D01*
X217205655Y-45709462D01*
X217665846Y-45250073D01*
X217915206Y-44649547D01*
X217915774Y-43999306D01*
X217667462Y-43398345D01*
X217208073Y-42938154D01*
X216607547Y-42688794D01*
X215957306Y-42688226D01*
X215356345Y-42936538D01*
X214896154Y-43395927D01*
X214646794Y-43996453D01*
X214646226Y-44646694D01*
X200706899Y-44646694D01*
X200705271Y-44638511D01*
X200380415Y-44152330D01*
X199894234Y-43827474D01*
X199320745Y-43713400D01*
X198951255Y-43713400D01*
X198377766Y-43827474D01*
X197891585Y-44152330D01*
X197566729Y-44638511D01*
X197452655Y-45212000D01*
X197566729Y-45785489D01*
X197891585Y-46271670D01*
X198206366Y-46482000D01*
X197891585Y-46692330D01*
X197709660Y-46964600D01*
X197104000Y-46964600D01*
X196802675Y-47024537D01*
X196547224Y-47195224D01*
X193729848Y-50012600D01*
X172030152Y-50012600D01*
X169605231Y-47587679D01*
X172212000Y-47587679D01*
X172212000Y-48170321D01*
X172337675Y-48802131D01*
X172695567Y-49337754D01*
X173231190Y-49695646D01*
X173863000Y-49821321D01*
X174494810Y-49695646D01*
X175030433Y-49337754D01*
X175133000Y-49184252D01*
X175235567Y-49337754D01*
X175771190Y-49695646D01*
X176403000Y-49821321D01*
X177034810Y-49695646D01*
X177570433Y-49337754D01*
X177687054Y-49163219D01*
X177865370Y-49390236D01*
X178428523Y-49706926D01*
X178560056Y-49738975D01*
X178816000Y-49619836D01*
X178816000Y-48006000D01*
X179070000Y-48006000D01*
X179070000Y-49619836D01*
X179325944Y-49738975D01*
X179457477Y-49706926D01*
X180020630Y-49390236D01*
X180419724Y-48882143D01*
X180594000Y-48260000D01*
X180594000Y-48006000D01*
X179070000Y-48006000D01*
X178816000Y-48006000D01*
X178796000Y-48006000D01*
X178796000Y-47752000D01*
X178816000Y-47752000D01*
X178816000Y-46138164D01*
X179070000Y-46138164D01*
X179070000Y-47752000D01*
X180594000Y-47752000D01*
X180594000Y-47498000D01*
X180419724Y-46875857D01*
X180020630Y-46367764D01*
X179457477Y-46051074D01*
X179325944Y-46019025D01*
X179070000Y-46138164D01*
X178816000Y-46138164D01*
X178560056Y-46019025D01*
X178428523Y-46051074D01*
X177865370Y-46367764D01*
X177687054Y-46594781D01*
X177570433Y-46420246D01*
X177034810Y-46062354D01*
X176403000Y-45936679D01*
X175771190Y-46062354D01*
X175235567Y-46420246D01*
X175133000Y-46573748D01*
X175030433Y-46420246D01*
X174494810Y-46062354D01*
X173863000Y-45936679D01*
X173231190Y-46062354D01*
X172695567Y-46420246D01*
X172337675Y-46955869D01*
X172212000Y-47587679D01*
X169605231Y-47587679D01*
X169339776Y-47322224D01*
X169084325Y-47151537D01*
X168971682Y-47129131D01*
X168899462Y-46954345D01*
X168440073Y-46494154D01*
X167839547Y-46244794D01*
X167189306Y-46244226D01*
X166588345Y-46492538D01*
X166128154Y-46951927D01*
X165878794Y-47552453D01*
X165878226Y-48202694D01*
X166126538Y-48803655D01*
X166585927Y-49263846D01*
X166725600Y-49321843D01*
X166725600Y-51616848D01*
X161217848Y-57124600D01*
X140004543Y-57124600D01*
X140449846Y-56680073D01*
X140699206Y-56079547D01*
X140699774Y-55429306D01*
X140451462Y-54828345D01*
X140258853Y-54635400D01*
X145288000Y-54635400D01*
X145589325Y-54575463D01*
X145844776Y-54404776D01*
X146630152Y-53619400D01*
X147417660Y-53619400D01*
X147599585Y-53891670D01*
X147613913Y-53901243D01*
X147592683Y-53905238D01*
X147376559Y-54044310D01*
X147231569Y-54256510D01*
X147180560Y-54508400D01*
X147180560Y-56235600D01*
X147224838Y-56470917D01*
X147363910Y-56687041D01*
X147576110Y-56832031D01*
X147828000Y-56883040D01*
X149860000Y-56883040D01*
X150095317Y-56838762D01*
X150311441Y-56699690D01*
X150456431Y-56487490D01*
X150507440Y-56235600D01*
X150507440Y-54508400D01*
X150463162Y-54273083D01*
X150324090Y-54056959D01*
X150111890Y-53911969D01*
X150070561Y-53903600D01*
X150088415Y-53891670D01*
X150413271Y-53405489D01*
X150527345Y-52832000D01*
X150413271Y-52258511D01*
X150088415Y-51772330D01*
X149773634Y-51562000D01*
X150088415Y-51351670D01*
X150413271Y-50865489D01*
X150527345Y-50292000D01*
X150413271Y-49718511D01*
X150088415Y-49232330D01*
X149773634Y-49022000D01*
X150088415Y-48811670D01*
X150413271Y-48325489D01*
X150527345Y-47752000D01*
X150413271Y-47178511D01*
X150088415Y-46692330D01*
X149773634Y-46482000D01*
X150088415Y-46271670D01*
X150413271Y-45785489D01*
X150527345Y-45212000D01*
X150413271Y-44638511D01*
X150249022Y-44392694D01*
X165878226Y-44392694D01*
X166126538Y-44993655D01*
X166585927Y-45453846D01*
X167186453Y-45703206D01*
X167836694Y-45703774D01*
X168243478Y-45535694D01*
X182261226Y-45535694D01*
X182509538Y-46136655D01*
X182968927Y-46596846D01*
X183569453Y-46846206D01*
X184219694Y-46846774D01*
X184820655Y-46598462D01*
X185280846Y-46139073D01*
X185530206Y-45538547D01*
X185530208Y-45535694D01*
X185817226Y-45535694D01*
X186065538Y-46136655D01*
X186524927Y-46596846D01*
X187125453Y-46846206D01*
X187775694Y-46846774D01*
X188376655Y-46598462D01*
X188836846Y-46139073D01*
X189086206Y-45538547D01*
X189086774Y-44888306D01*
X188838462Y-44287345D01*
X188379073Y-43827154D01*
X187778547Y-43577794D01*
X187128306Y-43577226D01*
X186527345Y-43825538D01*
X186067154Y-44284927D01*
X185817794Y-44885453D01*
X185817226Y-45535694D01*
X185530208Y-45535694D01*
X185530774Y-44888306D01*
X185282462Y-44287345D01*
X184823073Y-43827154D01*
X184222547Y-43577794D01*
X183572306Y-43577226D01*
X182971345Y-43825538D01*
X182511154Y-44284927D01*
X182261794Y-44885453D01*
X182261226Y-45535694D01*
X168243478Y-45535694D01*
X168437655Y-45455462D01*
X168897846Y-44996073D01*
X169147206Y-44395547D01*
X169147774Y-43745306D01*
X168899462Y-43144345D01*
X168440073Y-42684154D01*
X167839547Y-42434794D01*
X167189306Y-42434226D01*
X166588345Y-42682538D01*
X166128154Y-43141927D01*
X165878794Y-43742453D01*
X165878226Y-44392694D01*
X150249022Y-44392694D01*
X150088415Y-44152330D01*
X149602234Y-43827474D01*
X149028745Y-43713400D01*
X148659255Y-43713400D01*
X148085766Y-43827474D01*
X147599585Y-44152330D01*
X147274729Y-44638511D01*
X147160655Y-45212000D01*
X147274729Y-45785489D01*
X147599585Y-46271670D01*
X147914366Y-46482000D01*
X147599585Y-46692330D01*
X147274729Y-47178511D01*
X147160655Y-47752000D01*
X147274729Y-48325489D01*
X147599585Y-48811670D01*
X147914366Y-49022000D01*
X147599585Y-49232330D01*
X147274729Y-49718511D01*
X147160655Y-50292000D01*
X147274729Y-50865489D01*
X147599585Y-51351670D01*
X147914366Y-51562000D01*
X147599585Y-51772330D01*
X147417660Y-52044600D01*
X146304000Y-52044600D01*
X146002675Y-52104537D01*
X145747224Y-52275224D01*
X144961848Y-53060600D01*
X127508000Y-53060600D01*
X127206675Y-53120537D01*
X126951224Y-53291224D01*
X124201563Y-56040885D01*
X123957080Y-56141903D01*
X123706782Y-56391764D01*
X123571154Y-56718391D01*
X123570846Y-57072057D01*
X123592556Y-57124600D01*
X119684543Y-57124600D01*
X120129846Y-56680073D01*
X120379206Y-56079547D01*
X120379774Y-55429306D01*
X120131462Y-54828345D01*
X119672073Y-54368154D01*
X119071547Y-54118794D01*
X118421306Y-54118226D01*
X117820345Y-54366538D01*
X117360154Y-54825927D01*
X117110794Y-55426453D01*
X117110226Y-56076694D01*
X117358538Y-56677655D01*
X117804704Y-57124600D01*
X97354152Y-57124600D01*
X94767400Y-54537848D01*
X94767400Y-53340000D01*
X94707463Y-53038675D01*
X94536776Y-52783224D01*
X93012776Y-51259224D01*
X92757325Y-51088537D01*
X92456000Y-51028600D01*
X74168000Y-51028600D01*
X73866675Y-51088537D01*
X73611224Y-51259224D01*
X71738340Y-53132108D01*
X71738774Y-52635306D01*
X71490462Y-52034345D01*
X71031073Y-51574154D01*
X70430547Y-51324794D01*
X69780306Y-51324226D01*
X69179345Y-51572538D01*
X68719154Y-52031927D01*
X68469794Y-52632453D01*
X68469226Y-53282694D01*
X68587360Y-53568600D01*
X57277000Y-53568600D01*
X57277000Y-48992552D01*
X58046873Y-48222679D01*
X74803000Y-48222679D01*
X74803000Y-48805321D01*
X74928675Y-49437131D01*
X75286567Y-49972754D01*
X75822190Y-50330646D01*
X76454000Y-50456321D01*
X77085810Y-50330646D01*
X77621433Y-49972754D01*
X77724000Y-49819252D01*
X77826567Y-49972754D01*
X78362190Y-50330646D01*
X78994000Y-50456321D01*
X79625810Y-50330646D01*
X80161433Y-49972754D01*
X80278054Y-49798219D01*
X80456370Y-50025236D01*
X81019523Y-50341926D01*
X81151056Y-50373975D01*
X81407000Y-50254836D01*
X81407000Y-48641000D01*
X81661000Y-48641000D01*
X81661000Y-50254836D01*
X81916944Y-50373975D01*
X82048477Y-50341926D01*
X82611630Y-50025236D01*
X83010724Y-49517143D01*
X83185000Y-48895000D01*
X83185000Y-48641000D01*
X81661000Y-48641000D01*
X81407000Y-48641000D01*
X81387000Y-48641000D01*
X81387000Y-48387000D01*
X81407000Y-48387000D01*
X81407000Y-46773164D01*
X81661000Y-46773164D01*
X81661000Y-48387000D01*
X83185000Y-48387000D01*
X83185000Y-48133000D01*
X83010724Y-47510857D01*
X82611630Y-47002764D01*
X82048477Y-46686074D01*
X81916944Y-46654025D01*
X81661000Y-46773164D01*
X81407000Y-46773164D01*
X81151056Y-46654025D01*
X81019523Y-46686074D01*
X80456370Y-47002764D01*
X80278054Y-47229781D01*
X80161433Y-47055246D01*
X79625810Y-46697354D01*
X78994000Y-46571679D01*
X78362190Y-46697354D01*
X77826567Y-47055246D01*
X77724000Y-47208748D01*
X77621433Y-47055246D01*
X77085810Y-46697354D01*
X76454000Y-46571679D01*
X75822190Y-46697354D01*
X75286567Y-47055246D01*
X74928675Y-47590869D01*
X74803000Y-48222679D01*
X58046873Y-48222679D01*
X67890152Y-38379400D01*
X69037235Y-38379400D01*
X68719154Y-38696927D01*
X68469794Y-39297453D01*
X68469226Y-39947694D01*
X68717538Y-40548655D01*
X69176927Y-41008846D01*
X69665432Y-41211691D01*
X69179345Y-41412538D01*
X68719154Y-41871927D01*
X68469794Y-42472453D01*
X68469226Y-43122694D01*
X68717538Y-43723655D01*
X69176927Y-44183846D01*
X69777453Y-44433206D01*
X70427694Y-44433774D01*
X71028655Y-44185462D01*
X71488846Y-43726073D01*
X71580719Y-43504818D01*
X71648692Y-43459400D01*
X85547235Y-43459400D01*
X85229154Y-43776927D01*
X84979794Y-44377453D01*
X84979226Y-45027694D01*
X85227538Y-45628655D01*
X85686927Y-46088846D01*
X86287453Y-46338206D01*
X86937694Y-46338774D01*
X87538655Y-46090462D01*
X87998846Y-45631073D01*
X88248206Y-45030547D01*
X88248774Y-44380306D01*
X88000462Y-43779345D01*
X87681075Y-43459400D01*
X89357235Y-43459400D01*
X89039154Y-43776927D01*
X88789794Y-44377453D01*
X88789226Y-45027694D01*
X89037538Y-45628655D01*
X89496927Y-46088846D01*
X90097453Y-46338206D01*
X90747694Y-46338774D01*
X91348655Y-46090462D01*
X91808846Y-45631073D01*
X91866843Y-45491400D01*
X93764330Y-45491400D01*
X93983764Y-45711218D01*
X94310391Y-45846846D01*
X94664057Y-45847154D01*
X94990920Y-45712097D01*
X95241218Y-45462236D01*
X95376846Y-45135609D01*
X95377154Y-44781943D01*
X95242097Y-44455080D01*
X94992236Y-44204782D01*
X94687606Y-44078288D01*
X94535325Y-43976537D01*
X94234000Y-43916600D01*
X91867175Y-43916600D01*
X91810462Y-43779345D01*
X91491075Y-43459400D01*
X94669848Y-43459400D01*
X97487224Y-46276776D01*
X97742675Y-46447463D01*
X98044000Y-46507400D01*
X98649660Y-46507400D01*
X98831585Y-46779670D01*
X99146366Y-46990000D01*
X98831585Y-47200330D01*
X98649660Y-47472600D01*
X85670152Y-47472600D01*
X83360776Y-45163224D01*
X83105325Y-44992537D01*
X82804000Y-44932600D01*
X75605917Y-44932600D01*
X75361609Y-44831154D01*
X75007943Y-44830846D01*
X74681080Y-44965903D01*
X74430782Y-45215764D01*
X74295154Y-45542391D01*
X74294846Y-45896057D01*
X74429903Y-46222920D01*
X74679764Y-46473218D01*
X75006391Y-46608846D01*
X75360057Y-46609154D01*
X75606321Y-46507400D01*
X82477848Y-46507400D01*
X84787224Y-48816776D01*
X85042675Y-48987463D01*
X85344000Y-49047400D01*
X98649660Y-49047400D01*
X98831585Y-49319670D01*
X99146366Y-49530000D01*
X98831585Y-49740330D01*
X98506729Y-50226511D01*
X98392655Y-50800000D01*
X98506729Y-51373489D01*
X98831585Y-51859670D01*
X98845913Y-51869243D01*
X98824683Y-51873238D01*
X98608559Y-52012310D01*
X98463569Y-52224510D01*
X98412560Y-52476400D01*
X98412560Y-54203600D01*
X98456838Y-54438917D01*
X98595910Y-54655041D01*
X98808110Y-54800031D01*
X99060000Y-54851040D01*
X101092000Y-54851040D01*
X101327317Y-54806762D01*
X101543441Y-54667690D01*
X101688431Y-54455490D01*
X101739440Y-54203600D01*
X101739440Y-52476400D01*
X101695162Y-52241083D01*
X101556090Y-52024959D01*
X101343890Y-51879969D01*
X101302561Y-51871600D01*
X101320415Y-51859670D01*
X101645271Y-51373489D01*
X101759345Y-50800000D01*
X101645271Y-50226511D01*
X101320415Y-49740330D01*
X101005634Y-49530000D01*
X101320415Y-49319670D01*
X101645271Y-48833489D01*
X101759345Y-48260000D01*
X101645271Y-47686511D01*
X101320415Y-47200330D01*
X101005634Y-46990000D01*
X101320415Y-46779670D01*
X101645271Y-46293489D01*
X101759345Y-45720000D01*
X101645271Y-45146511D01*
X101320415Y-44660330D01*
X101005634Y-44450000D01*
X101320415Y-44239670D01*
X101645271Y-43753489D01*
X101759345Y-43180000D01*
X101645271Y-42606511D01*
X101320415Y-42120330D01*
X100834234Y-41795474D01*
X100260745Y-41681400D01*
X99891255Y-41681400D01*
X99317766Y-41795474D01*
X98831585Y-42120330D01*
X98506729Y-42606511D01*
X98392655Y-43180000D01*
X98506729Y-43753489D01*
X98831585Y-44239670D01*
X99146366Y-44450000D01*
X98831585Y-44660330D01*
X98649660Y-44932600D01*
X98370152Y-44932600D01*
X95552776Y-42115224D01*
X95297325Y-41944537D01*
X94996000Y-41884600D01*
X91745208Y-41884600D01*
X91808846Y-41821073D01*
X92058206Y-41220547D01*
X92058774Y-40570306D01*
X91810462Y-39969345D01*
X91351073Y-39509154D01*
X90750547Y-39259794D01*
X90100306Y-39259226D01*
X89499345Y-39507538D01*
X89039154Y-39966927D01*
X88789794Y-40567453D01*
X88789226Y-41217694D01*
X89037538Y-41818655D01*
X89103368Y-41884600D01*
X87935208Y-41884600D01*
X87998846Y-41821073D01*
X88248206Y-41220547D01*
X88248774Y-40570306D01*
X88000462Y-39969345D01*
X87541073Y-39509154D01*
X86940547Y-39259794D01*
X86290306Y-39259226D01*
X85689345Y-39507538D01*
X85229154Y-39966927D01*
X84979794Y-40567453D01*
X84979226Y-41217694D01*
X85227538Y-41818655D01*
X85293368Y-41884600D01*
X71494699Y-41884600D01*
X71490462Y-41874345D01*
X71031073Y-41414154D01*
X70542568Y-41211309D01*
X71028655Y-41010462D01*
X71488846Y-40551073D01*
X71738206Y-39950547D01*
X71738774Y-39300306D01*
X71490462Y-38699345D01*
X71171075Y-38379400D01*
X99241848Y-38379400D01*
X107012224Y-46149776D01*
X107267675Y-46320463D01*
X107569000Y-46380400D01*
X117301825Y-46380400D01*
X117358538Y-46517655D01*
X117817927Y-46977846D01*
X118418453Y-47227206D01*
X119068694Y-47227774D01*
X119669655Y-46979462D01*
X120129846Y-46520073D01*
X120379206Y-45919547D01*
X120379580Y-45491400D01*
X127131048Y-45491400D01*
X127078224Y-45544224D01*
X126907537Y-45799675D01*
X126847600Y-46101000D01*
X126847600Y-46420316D01*
X126467567Y-46674246D01*
X126365000Y-46827748D01*
X126262433Y-46674246D01*
X125726810Y-46316354D01*
X125095000Y-46190679D01*
X124463190Y-46316354D01*
X123927567Y-46674246D01*
X123569675Y-47209869D01*
X123444000Y-47841679D01*
X123444000Y-48424321D01*
X123569675Y-49056131D01*
X123927567Y-49591754D01*
X124463190Y-49949646D01*
X125095000Y-50075321D01*
X125726810Y-49949646D01*
X126262433Y-49591754D01*
X126365000Y-49438252D01*
X126467567Y-49591754D01*
X127003190Y-49949646D01*
X127635000Y-50075321D01*
X128266810Y-49949646D01*
X128802433Y-49591754D01*
X128919054Y-49417219D01*
X129097370Y-49644236D01*
X129660523Y-49960926D01*
X129792056Y-49992975D01*
X130048000Y-49873836D01*
X130048000Y-48260000D01*
X130302000Y-48260000D01*
X130302000Y-49873836D01*
X130557944Y-49992975D01*
X130689477Y-49960926D01*
X131252630Y-49644236D01*
X131651724Y-49136143D01*
X131826000Y-48514000D01*
X131826000Y-48260000D01*
X130302000Y-48260000D01*
X130048000Y-48260000D01*
X130028000Y-48260000D01*
X130028000Y-48006000D01*
X130048000Y-48006000D01*
X130048000Y-47986000D01*
X130302000Y-47986000D01*
X130302000Y-48006000D01*
X131826000Y-48006000D01*
X131826000Y-47752000D01*
X131651724Y-47129857D01*
X131252630Y-46621764D01*
X130823425Y-46380400D01*
X133811825Y-46380400D01*
X133868538Y-46517655D01*
X134327927Y-46977846D01*
X134928453Y-47227206D01*
X135578694Y-47227774D01*
X136179655Y-46979462D01*
X136639846Y-46520073D01*
X136889206Y-45919547D01*
X136889774Y-45269306D01*
X136641462Y-44668345D01*
X136448853Y-44475400D01*
X137871014Y-44475400D01*
X137680154Y-44665927D01*
X137430794Y-45266453D01*
X137430226Y-45916694D01*
X137678538Y-46517655D01*
X138137927Y-46977846D01*
X138738453Y-47227206D01*
X139388694Y-47227774D01*
X139989655Y-46979462D01*
X140449846Y-46520073D01*
X140507843Y-46380400D01*
X143167108Y-46380400D01*
X143259764Y-46473218D01*
X143586391Y-46608846D01*
X143940057Y-46609154D01*
X144266920Y-46474097D01*
X144517218Y-46224236D01*
X144652846Y-45897609D01*
X144653154Y-45543943D01*
X144518097Y-45217080D01*
X144268236Y-44966782D01*
X143941609Y-44831154D01*
X143764695Y-44831000D01*
X143637000Y-44805600D01*
X140508175Y-44805600D01*
X140451462Y-44668345D01*
X140258853Y-44475400D01*
X141564083Y-44475400D01*
X141808391Y-44576846D01*
X142162057Y-44577154D01*
X142488920Y-44442097D01*
X142739218Y-44192236D01*
X142874846Y-43865609D01*
X142875154Y-43511943D01*
X142740097Y-43185080D01*
X142490236Y-42934782D01*
X142163609Y-42799154D01*
X141809943Y-42798846D01*
X141563679Y-42900600D01*
X140716202Y-42900600D01*
X140809403Y-42676149D01*
X142902858Y-40582694D01*
X182388226Y-40582694D01*
X182636538Y-41183655D01*
X183095927Y-41643846D01*
X183696453Y-41893206D01*
X184346694Y-41893774D01*
X184947655Y-41645462D01*
X185407846Y-41186073D01*
X185657206Y-40585547D01*
X185657208Y-40582694D01*
X186198226Y-40582694D01*
X186446538Y-41183655D01*
X186905927Y-41643846D01*
X187506453Y-41893206D01*
X188156694Y-41893774D01*
X188757655Y-41645462D01*
X189217846Y-41186073D01*
X189371489Y-40816057D01*
X226694846Y-40816057D01*
X226829903Y-41142920D01*
X227079764Y-41393218D01*
X227325851Y-41495403D01*
X230710224Y-44879776D01*
X230965675Y-45050463D01*
X231267000Y-45110400D01*
X231347825Y-45110400D01*
X231404538Y-45247655D01*
X231863927Y-45707846D01*
X232464453Y-45957206D01*
X233114694Y-45957774D01*
X233715655Y-45709462D01*
X234175846Y-45250073D01*
X234425206Y-44649547D01*
X234425208Y-44646694D01*
X234966226Y-44646694D01*
X235214538Y-45247655D01*
X235673927Y-45707846D01*
X236274453Y-45957206D01*
X236924694Y-45957774D01*
X237525655Y-45709462D01*
X237985846Y-45250073D01*
X238235206Y-44649547D01*
X238235774Y-43999306D01*
X237987462Y-43398345D01*
X237528073Y-42938154D01*
X236927547Y-42688794D01*
X236277306Y-42688226D01*
X235676345Y-42936538D01*
X235216154Y-43395927D01*
X234966794Y-43996453D01*
X234966226Y-44646694D01*
X234425208Y-44646694D01*
X234425774Y-43999306D01*
X234177462Y-43398345D01*
X233718073Y-42938154D01*
X233117547Y-42688794D01*
X232467306Y-42688226D01*
X231866345Y-42936538D01*
X231429837Y-43372285D01*
X228894246Y-40836694D01*
X229886226Y-40836694D01*
X230134538Y-41437655D01*
X230593927Y-41897846D01*
X231194453Y-42147206D01*
X231844694Y-42147774D01*
X232445655Y-41899462D01*
X232905846Y-41440073D01*
X233155206Y-40839547D01*
X233155208Y-40836694D01*
X233696226Y-40836694D01*
X233944538Y-41437655D01*
X234403927Y-41897846D01*
X235004453Y-42147206D01*
X235654694Y-42147774D01*
X236255655Y-41899462D01*
X236715846Y-41440073D01*
X236965206Y-40839547D01*
X236965652Y-40328694D01*
X279924226Y-40328694D01*
X280172538Y-40929655D01*
X280631927Y-41389846D01*
X281232453Y-41639206D01*
X281882694Y-41639774D01*
X282483655Y-41391462D01*
X282943846Y-40932073D01*
X283193206Y-40331547D01*
X283193208Y-40328694D01*
X283734226Y-40328694D01*
X283982538Y-40929655D01*
X284441927Y-41389846D01*
X285042453Y-41639206D01*
X285692694Y-41639774D01*
X286293655Y-41391462D01*
X286753846Y-40932073D01*
X287003206Y-40331547D01*
X287003774Y-39681306D01*
X286755462Y-39080345D01*
X286296073Y-38620154D01*
X285695547Y-38370794D01*
X285045306Y-38370226D01*
X284444345Y-38618538D01*
X283984154Y-39077927D01*
X283734794Y-39678453D01*
X283734226Y-40328694D01*
X283193208Y-40328694D01*
X283193774Y-39681306D01*
X282945462Y-39080345D01*
X282486073Y-38620154D01*
X281885547Y-38370794D01*
X281235306Y-38370226D01*
X280634345Y-38618538D01*
X280174154Y-39077927D01*
X279924794Y-39678453D01*
X279924226Y-40328694D01*
X236965652Y-40328694D01*
X236965774Y-40189306D01*
X236717462Y-39588345D01*
X236258073Y-39128154D01*
X235657547Y-38878794D01*
X235007306Y-38878226D01*
X234406345Y-39126538D01*
X233946154Y-39585927D01*
X233696794Y-40186453D01*
X233696226Y-40836694D01*
X233155208Y-40836694D01*
X233155774Y-40189306D01*
X232907462Y-39588345D01*
X232448073Y-39128154D01*
X231847547Y-38878794D01*
X231197306Y-38878226D01*
X230596345Y-39126538D01*
X230136154Y-39585927D01*
X229886794Y-40186453D01*
X229886226Y-40836694D01*
X228894246Y-40836694D01*
X228439115Y-40381563D01*
X228338097Y-40137080D01*
X228088236Y-39886782D01*
X227761609Y-39751154D01*
X227407943Y-39750846D01*
X227081080Y-39885903D01*
X226830782Y-40135764D01*
X226695154Y-40462391D01*
X226694846Y-40816057D01*
X189371489Y-40816057D01*
X189467206Y-40585547D01*
X189467774Y-39935306D01*
X189219462Y-39334345D01*
X188760073Y-38874154D01*
X188159547Y-38624794D01*
X187509306Y-38624226D01*
X186908345Y-38872538D01*
X186448154Y-39331927D01*
X186198794Y-39932453D01*
X186198226Y-40582694D01*
X185657208Y-40582694D01*
X185657774Y-39935306D01*
X185409462Y-39334345D01*
X184950073Y-38874154D01*
X184349547Y-38624794D01*
X183699306Y-38624226D01*
X183098345Y-38872538D01*
X182638154Y-39331927D01*
X182388794Y-39932453D01*
X182388226Y-40582694D01*
X142902858Y-40582694D01*
X143514437Y-39971115D01*
X143758920Y-39870097D01*
X144009218Y-39620236D01*
X144144846Y-39293609D01*
X144145154Y-38939943D01*
X144010097Y-38613080D01*
X143760236Y-38362782D01*
X143433609Y-38227154D01*
X143079943Y-38226846D01*
X142753080Y-38361903D01*
X142502782Y-38611764D01*
X142400597Y-38857851D01*
X140699451Y-40558997D01*
X140699774Y-40189306D01*
X140451462Y-39588345D01*
X139992073Y-39128154D01*
X139391547Y-38878794D01*
X138741306Y-38878226D01*
X138140345Y-39126538D01*
X137680154Y-39585927D01*
X137430794Y-40186453D01*
X137430226Y-40836694D01*
X137678538Y-41437655D01*
X138137927Y-41897846D01*
X138738453Y-42147206D01*
X139103715Y-42147525D01*
X139065154Y-42240391D01*
X139064846Y-42594057D01*
X139191507Y-42900600D01*
X132080000Y-42900600D01*
X131778675Y-42960537D01*
X131523224Y-43131224D01*
X130737848Y-43916600D01*
X119634000Y-43916600D01*
X119332675Y-43976537D01*
X119248970Y-44032467D01*
X119071547Y-43958794D01*
X118421306Y-43958226D01*
X117820345Y-44206538D01*
X117360154Y-44665927D01*
X117302157Y-44805600D01*
X108851670Y-44805600D01*
X108957218Y-44700236D01*
X109092846Y-44373609D01*
X109093154Y-44019943D01*
X108958097Y-43693080D01*
X108708236Y-43442782D01*
X108707863Y-43442627D01*
X107371930Y-42106694D01*
X117110226Y-42106694D01*
X117358538Y-42707655D01*
X117817927Y-43167846D01*
X118418453Y-43417206D01*
X119068694Y-43417774D01*
X119669655Y-43169462D01*
X120129846Y-42710073D01*
X120379206Y-42109547D01*
X120379774Y-41459306D01*
X120131462Y-40858345D01*
X120109849Y-40836694D01*
X133620226Y-40836694D01*
X133868538Y-41437655D01*
X134327927Y-41897846D01*
X134928453Y-42147206D01*
X135578694Y-42147774D01*
X136179655Y-41899462D01*
X136639846Y-41440073D01*
X136889206Y-40839547D01*
X136889774Y-40189306D01*
X136641462Y-39588345D01*
X136182073Y-39128154D01*
X135581547Y-38878794D01*
X134931306Y-38878226D01*
X134330345Y-39126538D01*
X133870154Y-39585927D01*
X133620794Y-40186453D01*
X133620226Y-40836694D01*
X120109849Y-40836694D01*
X119672073Y-40398154D01*
X119071547Y-40148794D01*
X118421306Y-40148226D01*
X117820345Y-40396538D01*
X117360154Y-40855927D01*
X117110794Y-41456453D01*
X117110226Y-42106694D01*
X107371930Y-42106694D01*
X99497930Y-34232694D01*
X165878226Y-34232694D01*
X166126538Y-34833655D01*
X166585927Y-35293846D01*
X167186453Y-35543206D01*
X167836694Y-35543774D01*
X168437655Y-35295462D01*
X168897846Y-34836073D01*
X169042920Y-34486694D01*
X214646226Y-34486694D01*
X214894538Y-35087655D01*
X215353927Y-35547846D01*
X215954453Y-35797206D01*
X216604694Y-35797774D01*
X217205655Y-35549462D01*
X217665846Y-35090073D01*
X217915206Y-34489547D01*
X217915774Y-33839306D01*
X217667462Y-33238345D01*
X217208073Y-32778154D01*
X217040795Y-32708694D01*
X264684226Y-32708694D01*
X264932538Y-33309655D01*
X265391927Y-33769846D01*
X265992453Y-34019206D01*
X266642694Y-34019774D01*
X267243655Y-33771462D01*
X267703846Y-33312073D01*
X267953206Y-32711547D01*
X267953774Y-32061306D01*
X267705462Y-31460345D01*
X267246073Y-31000154D01*
X266645547Y-30750794D01*
X265995306Y-30750226D01*
X265394345Y-30998538D01*
X264934154Y-31457927D01*
X264684794Y-32058453D01*
X264684226Y-32708694D01*
X217040795Y-32708694D01*
X216607547Y-32528794D01*
X215957306Y-32528226D01*
X215356345Y-32776538D01*
X214896154Y-33235927D01*
X214646794Y-33836453D01*
X214646226Y-34486694D01*
X169042920Y-34486694D01*
X169147206Y-34235547D01*
X169147774Y-33585306D01*
X168899462Y-32984345D01*
X168440073Y-32524154D01*
X167839547Y-32274794D01*
X167189306Y-32274226D01*
X166588345Y-32522538D01*
X166128154Y-32981927D01*
X165878794Y-33582453D01*
X165878226Y-34232694D01*
X99497930Y-34232694D01*
X99180618Y-33915382D01*
X99066762Y-33839306D01*
X98892206Y-33722671D01*
X98552000Y-33655000D01*
X62357000Y-33655000D01*
X62357000Y-29787694D01*
X68469226Y-29787694D01*
X68717538Y-30388655D01*
X69176927Y-30848846D01*
X69777453Y-31098206D01*
X70427694Y-31098774D01*
X70527115Y-31057694D01*
X84979226Y-31057694D01*
X85227538Y-31658655D01*
X85686927Y-32118846D01*
X86287453Y-32368206D01*
X86937694Y-32368774D01*
X87538655Y-32120462D01*
X87998846Y-31661073D01*
X88248206Y-31060547D01*
X88248208Y-31057694D01*
X88789226Y-31057694D01*
X89037538Y-31658655D01*
X89496927Y-32118846D01*
X90097453Y-32368206D01*
X90747694Y-32368774D01*
X91348655Y-32120462D01*
X91522726Y-31946694D01*
X117110226Y-31946694D01*
X117358538Y-32547655D01*
X117817927Y-33007846D01*
X118418453Y-33257206D01*
X119068694Y-33257774D01*
X119669655Y-33009462D01*
X120129846Y-32550073D01*
X120379206Y-31949547D01*
X120379774Y-31299306D01*
X120131462Y-30698345D01*
X120109849Y-30676694D01*
X133620226Y-30676694D01*
X133868538Y-31277655D01*
X134327927Y-31737846D01*
X134928453Y-31987206D01*
X135578694Y-31987774D01*
X136179655Y-31739462D01*
X136639846Y-31280073D01*
X136889206Y-30679547D01*
X136889208Y-30676694D01*
X137430226Y-30676694D01*
X137678538Y-31277655D01*
X138137927Y-31737846D01*
X138738453Y-31987206D01*
X139388694Y-31987774D01*
X139989655Y-31739462D01*
X140449846Y-31280073D01*
X140699206Y-30679547D01*
X140699774Y-30029306D01*
X140451462Y-29428345D01*
X139992073Y-28968154D01*
X139391547Y-28718794D01*
X138741306Y-28718226D01*
X138140345Y-28966538D01*
X137680154Y-29425927D01*
X137430794Y-30026453D01*
X137430226Y-30676694D01*
X136889208Y-30676694D01*
X136889774Y-30029306D01*
X136641462Y-29428345D01*
X136182073Y-28968154D01*
X135581547Y-28718794D01*
X134931306Y-28718226D01*
X134330345Y-28966538D01*
X133870154Y-29425927D01*
X133620794Y-30026453D01*
X133620226Y-30676694D01*
X120109849Y-30676694D01*
X119672073Y-30238154D01*
X119071547Y-29988794D01*
X118421306Y-29988226D01*
X117820345Y-30236538D01*
X117360154Y-30695927D01*
X117110794Y-31296453D01*
X117110226Y-31946694D01*
X91522726Y-31946694D01*
X91808846Y-31661073D01*
X92058206Y-31060547D01*
X92058774Y-30410306D01*
X91810462Y-29809345D01*
X91351073Y-29349154D01*
X90750547Y-29099794D01*
X90100306Y-29099226D01*
X89499345Y-29347538D01*
X89039154Y-29806927D01*
X88789794Y-30407453D01*
X88789226Y-31057694D01*
X88248208Y-31057694D01*
X88248774Y-30410306D01*
X88000462Y-29809345D01*
X87541073Y-29349154D01*
X86940547Y-29099794D01*
X86290306Y-29099226D01*
X85689345Y-29347538D01*
X85229154Y-29806927D01*
X84979794Y-30407453D01*
X84979226Y-31057694D01*
X70527115Y-31057694D01*
X71028655Y-30850462D01*
X71488846Y-30391073D01*
X71738206Y-29790547D01*
X71738774Y-29140306D01*
X71490462Y-28539345D01*
X71419414Y-28468172D01*
X149732538Y-28468172D01*
X150137709Y-29448761D01*
X150887293Y-30199655D01*
X151867173Y-30606536D01*
X152928172Y-30607462D01*
X153375344Y-30422694D01*
X182388226Y-30422694D01*
X182636538Y-31023655D01*
X183095927Y-31483846D01*
X183696453Y-31733206D01*
X184346694Y-31733774D01*
X184947655Y-31485462D01*
X185407846Y-31026073D01*
X185657206Y-30425547D01*
X185657208Y-30422694D01*
X186198226Y-30422694D01*
X186446538Y-31023655D01*
X186905927Y-31483846D01*
X187506453Y-31733206D01*
X188156694Y-31733774D01*
X188757655Y-31485462D01*
X189217846Y-31026073D01*
X189362920Y-30676694D01*
X229886226Y-30676694D01*
X230134538Y-31277655D01*
X230593927Y-31737846D01*
X231194453Y-31987206D01*
X231844694Y-31987774D01*
X232445655Y-31739462D01*
X232905846Y-31280073D01*
X233155206Y-30679547D01*
X233155208Y-30676694D01*
X233696226Y-30676694D01*
X233944538Y-31277655D01*
X234403927Y-31737846D01*
X235004453Y-31987206D01*
X235654694Y-31987774D01*
X236255655Y-31739462D01*
X236715846Y-31280073D01*
X236965206Y-30679547D01*
X236965652Y-30168694D01*
X279924226Y-30168694D01*
X280172538Y-30769655D01*
X280631927Y-31229846D01*
X281232453Y-31479206D01*
X281882694Y-31479774D01*
X282483655Y-31231462D01*
X282943846Y-30772073D01*
X283193206Y-30171547D01*
X283193208Y-30168694D01*
X283734226Y-30168694D01*
X283982538Y-30769655D01*
X284441927Y-31229846D01*
X285042453Y-31479206D01*
X285692694Y-31479774D01*
X286293655Y-31231462D01*
X286753846Y-30772073D01*
X287003206Y-30171547D01*
X287003774Y-29521306D01*
X286755462Y-28920345D01*
X286296073Y-28460154D01*
X285695547Y-28210794D01*
X285045306Y-28210226D01*
X284444345Y-28458538D01*
X283984154Y-28917927D01*
X283734794Y-29518453D01*
X283734226Y-30168694D01*
X283193208Y-30168694D01*
X283193774Y-29521306D01*
X282945462Y-28920345D01*
X282486073Y-28460154D01*
X281885547Y-28210794D01*
X281235306Y-28210226D01*
X280634345Y-28458538D01*
X280174154Y-28917927D01*
X279924794Y-29518453D01*
X279924226Y-30168694D01*
X236965652Y-30168694D01*
X236965774Y-30029306D01*
X236717462Y-29428345D01*
X236258073Y-28968154D01*
X235657547Y-28718794D01*
X235007306Y-28718226D01*
X234406345Y-28966538D01*
X233946154Y-29425927D01*
X233696794Y-30026453D01*
X233696226Y-30676694D01*
X233155208Y-30676694D01*
X233155774Y-30029306D01*
X232907462Y-29428345D01*
X232448073Y-28968154D01*
X231847547Y-28718794D01*
X231197306Y-28718226D01*
X230596345Y-28966538D01*
X230136154Y-29425927D01*
X229886794Y-30026453D01*
X229886226Y-30676694D01*
X189362920Y-30676694D01*
X189467206Y-30425547D01*
X189467774Y-29775306D01*
X189219462Y-29174345D01*
X188760073Y-28714154D01*
X188159547Y-28464794D01*
X187509306Y-28464226D01*
X186908345Y-28712538D01*
X186448154Y-29171927D01*
X186198794Y-29772453D01*
X186198226Y-30422694D01*
X185657208Y-30422694D01*
X185657774Y-29775306D01*
X185409462Y-29174345D01*
X184950073Y-28714154D01*
X184349547Y-28464794D01*
X183699306Y-28464226D01*
X183098345Y-28712538D01*
X182638154Y-29171927D01*
X182388794Y-29772453D01*
X182388226Y-30422694D01*
X153375344Y-30422694D01*
X153908761Y-30202291D01*
X154659655Y-29452707D01*
X155066536Y-28472827D01*
X155067462Y-27411828D01*
X154662291Y-26431239D01*
X153912707Y-25680345D01*
X152932827Y-25273464D01*
X151871828Y-25272538D01*
X150891239Y-25677709D01*
X150140345Y-26427293D01*
X149733464Y-27407173D01*
X149732538Y-28468172D01*
X71419414Y-28468172D01*
X71031073Y-28079154D01*
X70430547Y-27829794D01*
X69780306Y-27829226D01*
X69179345Y-28077538D01*
X68719154Y-28536927D01*
X68469794Y-29137453D01*
X68469226Y-29787694D01*
X62357000Y-29787694D01*
X62357000Y-24257000D01*
X78166160Y-24257000D01*
X77916369Y-24423905D01*
X77916369Y-24423905D01*
G37*
X77916369Y-24423905D02*
X77586008Y-24918326D01*
X77470000Y-25501536D01*
X77470000Y-26822464D01*
X77586008Y-27405674D01*
X77916369Y-27900095D01*
X78410790Y-28230456D01*
X78994000Y-28346464D01*
X79577210Y-28230456D01*
X80071631Y-27900095D01*
X80401992Y-27405674D01*
X80518000Y-26822464D01*
X80518000Y-25501536D01*
X80401992Y-24918326D01*
X80071631Y-24423905D01*
X79821840Y-24257000D01*
X83246160Y-24257000D01*
X82996369Y-24423905D01*
X82666008Y-24918326D01*
X82550000Y-25501536D01*
X82550000Y-26822464D01*
X82666008Y-27405674D01*
X82996369Y-27900095D01*
X83490790Y-28230456D01*
X84074000Y-28346464D01*
X84657210Y-28230456D01*
X85151631Y-27900095D01*
X85481992Y-27405674D01*
X85598000Y-26822464D01*
X85598000Y-25501536D01*
X85481992Y-24918326D01*
X85151631Y-24423905D01*
X84901840Y-24257000D01*
X126934160Y-24257000D01*
X126684369Y-24423905D01*
X126354008Y-24918326D01*
X126238000Y-25501536D01*
X126238000Y-26822464D01*
X126354008Y-27405674D01*
X126684369Y-27900095D01*
X127178790Y-28230456D01*
X127762000Y-28346464D01*
X128345210Y-28230456D01*
X128839631Y-27900095D01*
X129169992Y-27405674D01*
X129286000Y-26822464D01*
X129286000Y-25501536D01*
X129169992Y-24918326D01*
X128839631Y-24423905D01*
X128589840Y-24257000D01*
X132014160Y-24257000D01*
X131764369Y-24423905D01*
X131434008Y-24918326D01*
X131318000Y-25501536D01*
X131318000Y-26822464D01*
X131434008Y-27405674D01*
X131764369Y-27900095D01*
X132258790Y-28230456D01*
X132842000Y-28346464D01*
X133425210Y-28230456D01*
X133919631Y-27900095D01*
X134249992Y-27405674D01*
X134366000Y-26822464D01*
X134366000Y-25501536D01*
X134249992Y-24918326D01*
X133919631Y-24423905D01*
X133669840Y-24257000D01*
X175394174Y-24257000D01*
X175122008Y-24664326D01*
X175006000Y-25247536D01*
X175006000Y-26568464D01*
X175122008Y-27151674D01*
X175452369Y-27646095D01*
X175946790Y-27976456D01*
X176530000Y-28092464D01*
X177113210Y-27976456D01*
X177607631Y-27646095D01*
X177937992Y-27151674D01*
X178054000Y-26568464D01*
X178054000Y-25247536D01*
X177937992Y-24664326D01*
X177665826Y-24257000D01*
X180474174Y-24257000D01*
X180202008Y-24664326D01*
X180086000Y-25247536D01*
X180086000Y-26568464D01*
X180202008Y-27151674D01*
X180532369Y-27646095D01*
X181026790Y-27976456D01*
X181610000Y-28092464D01*
X182193210Y-27976456D01*
X182687631Y-27646095D01*
X183017992Y-27151674D01*
X183134000Y-26568464D01*
X183134000Y-25247536D01*
X183017992Y-24664326D01*
X182745826Y-24257000D01*
X223908174Y-24257000D01*
X223636008Y-24664326D01*
X223520000Y-25247536D01*
X223520000Y-26568464D01*
X223636008Y-27151674D01*
X223966369Y-27646095D01*
X224460790Y-27976456D01*
X225044000Y-28092464D01*
X225627210Y-27976456D01*
X226121631Y-27646095D01*
X226451992Y-27151674D01*
X226568000Y-26568464D01*
X226568000Y-25247536D01*
X226451992Y-24664326D01*
X226179826Y-24257000D01*
X228988174Y-24257000D01*
X228716008Y-24664326D01*
X228600000Y-25247536D01*
X228600000Y-26568464D01*
X228716008Y-27151674D01*
X229046369Y-27646095D01*
X229540790Y-27976456D01*
X230124000Y-28092464D01*
X230707210Y-27976456D01*
X231201631Y-27646095D01*
X231531992Y-27151674D01*
X231648000Y-26568464D01*
X231648000Y-25247536D01*
X231531992Y-24664326D01*
X231259826Y-24257000D01*
X273438174Y-24257000D01*
X273166008Y-24664326D01*
X273050000Y-25247536D01*
X273050000Y-26568464D01*
X273166008Y-27151674D01*
X273496369Y-27646095D01*
X273990790Y-27976456D01*
X274574000Y-28092464D01*
X275157210Y-27976456D01*
X275651631Y-27646095D01*
X275981992Y-27151674D01*
X276098000Y-26568464D01*
X276098000Y-25247536D01*
X275981992Y-24664326D01*
X275709826Y-24257000D01*
X278518174Y-24257000D01*
X278246008Y-24664326D01*
X278130000Y-25247536D01*
X278130000Y-26568464D01*
X278246008Y-27151674D01*
X278576369Y-27646095D01*
X279070790Y-27976456D01*
X279654000Y-28092464D01*
X280237210Y-27976456D01*
X280731631Y-27646095D01*
X281061992Y-27151674D01*
X281178000Y-26568464D01*
X281178000Y-25247536D01*
X281061992Y-24664326D01*
X280789826Y-24257000D01*
X289433000Y-24257000D01*
X289433000Y-27938818D01*
X289432538Y-28468172D01*
X289433000Y-28469290D01*
X289433000Y-59719448D01*
X287068776Y-57355224D01*
X286813325Y-57184537D01*
X286512000Y-57124600D01*
X277694152Y-57124600D01*
X275503246Y-54933694D01*
X280559226Y-54933694D01*
X280807538Y-55534655D01*
X281266927Y-55994846D01*
X281867453Y-56244206D01*
X282517694Y-56244774D01*
X283118655Y-55996462D01*
X283578846Y-55537073D01*
X283781691Y-55048568D01*
X283982538Y-55534655D01*
X284441927Y-55994846D01*
X285042453Y-56244206D01*
X285692694Y-56244774D01*
X286293655Y-55996462D01*
X286753846Y-55537073D01*
X287003206Y-54936547D01*
X287003774Y-54286306D01*
X286755462Y-53685345D01*
X286296073Y-53225154D01*
X285695547Y-52975794D01*
X285045306Y-52975226D01*
X284444345Y-53223538D01*
X283984154Y-53682927D01*
X283781309Y-54171432D01*
X283580462Y-53685345D01*
X283121073Y-53225154D01*
X282520547Y-52975794D01*
X281870306Y-52975226D01*
X281269345Y-53223538D01*
X280809154Y-53682927D01*
X280559794Y-54283453D01*
X280559226Y-54933694D01*
X275503246Y-54933694D01*
X268538231Y-47968679D01*
X270383000Y-47968679D01*
X270383000Y-48551321D01*
X270508675Y-49183131D01*
X270866567Y-49718754D01*
X271402190Y-50076646D01*
X272034000Y-50202321D01*
X272665810Y-50076646D01*
X273201433Y-49718754D01*
X273304000Y-49565252D01*
X273406567Y-49718754D01*
X273942190Y-50076646D01*
X274574000Y-50202321D01*
X275205810Y-50076646D01*
X275741433Y-49718754D01*
X275858054Y-49544219D01*
X276036370Y-49771236D01*
X276599523Y-50087926D01*
X276731056Y-50119975D01*
X276987000Y-50000836D01*
X276987000Y-48387000D01*
X277241000Y-48387000D01*
X277241000Y-50000836D01*
X277496944Y-50119975D01*
X277628477Y-50087926D01*
X278191630Y-49771236D01*
X278590724Y-49263143D01*
X278765000Y-48641000D01*
X278765000Y-48387000D01*
X277241000Y-48387000D01*
X276987000Y-48387000D01*
X276967000Y-48387000D01*
X276967000Y-48133000D01*
X276987000Y-48133000D01*
X276987000Y-46519164D01*
X277241000Y-46519164D01*
X277241000Y-48133000D01*
X278765000Y-48133000D01*
X278765000Y-47879000D01*
X278590724Y-47256857D01*
X278191630Y-46748764D01*
X277628477Y-46432074D01*
X277496944Y-46400025D01*
X277241000Y-46519164D01*
X276987000Y-46519164D01*
X276731056Y-46400025D01*
X276599523Y-46432074D01*
X276036370Y-46748764D01*
X275858054Y-46975781D01*
X275741433Y-46801246D01*
X275205810Y-46443354D01*
X274574000Y-46317679D01*
X273942190Y-46443354D01*
X273406567Y-46801246D01*
X273304000Y-46954748D01*
X273201433Y-46801246D01*
X272665810Y-46443354D01*
X272034000Y-46317679D01*
X271402190Y-46443354D01*
X270866567Y-46801246D01*
X270508675Y-47336869D01*
X270383000Y-47968679D01*
X268538231Y-47968679D01*
X267460023Y-46890471D01*
X267703846Y-46647073D01*
X267953206Y-46046547D01*
X267953774Y-45396306D01*
X267705462Y-44795345D01*
X267683849Y-44773694D01*
X280559226Y-44773694D01*
X280807538Y-45374655D01*
X281266927Y-45834846D01*
X281867453Y-46084206D01*
X282517694Y-46084774D01*
X283118655Y-45836462D01*
X283578846Y-45377073D01*
X283781691Y-44888568D01*
X283982538Y-45374655D01*
X284441927Y-45834846D01*
X285042453Y-46084206D01*
X285692694Y-46084774D01*
X286293655Y-45836462D01*
X286753846Y-45377073D01*
X287003206Y-44776547D01*
X287003774Y-44126306D01*
X286755462Y-43525345D01*
X286296073Y-43065154D01*
X285695547Y-42815794D01*
X285045306Y-42815226D01*
X284444345Y-43063538D01*
X283984154Y-43522927D01*
X283781309Y-44011432D01*
X283580462Y-43525345D01*
X283121073Y-43065154D01*
X282520547Y-42815794D01*
X281870306Y-42815226D01*
X281269345Y-43063538D01*
X280809154Y-43522927D01*
X280559794Y-44123453D01*
X280559226Y-44773694D01*
X267683849Y-44773694D01*
X267246073Y-44335154D01*
X266757568Y-44132309D01*
X267243655Y-43931462D01*
X267703846Y-43472073D01*
X267953206Y-42871547D01*
X267953774Y-42221306D01*
X267705462Y-41620345D01*
X267246073Y-41160154D01*
X266645547Y-40910794D01*
X265995306Y-40910226D01*
X265394345Y-41158538D01*
X264934154Y-41617927D01*
X264684794Y-42218453D01*
X264684226Y-42868694D01*
X264932538Y-43469655D01*
X265391927Y-43929846D01*
X265880432Y-44132691D01*
X265394345Y-44333538D01*
X264934154Y-44792927D01*
X264876157Y-44932600D01*
X254508000Y-44932600D01*
X254206675Y-44992537D01*
X253951224Y-45163224D01*
X239957848Y-59156600D01*
X217692202Y-59156600D01*
X217915206Y-58619547D01*
X217915774Y-57969306D01*
X217667462Y-57368345D01*
X217208073Y-56908154D01*
X216607547Y-56658794D01*
X215957306Y-56658226D01*
X215356345Y-56906538D01*
X214896154Y-57365927D01*
X214646794Y-57966453D01*
X214646226Y-58616694D01*
X214869311Y-59156600D01*
X207132952Y-59156600D01*
X211249495Y-55040057D01*
X228218846Y-55040057D01*
X228353903Y-55366920D01*
X228603764Y-55617218D01*
X228930391Y-55752846D01*
X229284057Y-55753154D01*
X229610920Y-55618097D01*
X229861218Y-55368236D01*
X229901843Y-55270400D01*
X231347825Y-55270400D01*
X231404538Y-55407655D01*
X231863927Y-55867846D01*
X232464453Y-56117206D01*
X233114694Y-56117774D01*
X233715655Y-55869462D01*
X234175846Y-55410073D01*
X234425206Y-54809547D01*
X234425208Y-54806694D01*
X234966226Y-54806694D01*
X235214538Y-55407655D01*
X235673927Y-55867846D01*
X236274453Y-56117206D01*
X236924694Y-56117774D01*
X237525655Y-55869462D01*
X237985846Y-55410073D01*
X238235206Y-54809547D01*
X238235774Y-54159306D01*
X237987462Y-53558345D01*
X237528073Y-53098154D01*
X236927547Y-52848794D01*
X236277306Y-52848226D01*
X235676345Y-53096538D01*
X235216154Y-53555927D01*
X234966794Y-54156453D01*
X234966226Y-54806694D01*
X234425208Y-54806694D01*
X234425774Y-54159306D01*
X234177462Y-53558345D01*
X233718073Y-53098154D01*
X233117547Y-52848794D01*
X232467306Y-52848226D01*
X231866345Y-53096538D01*
X231406154Y-53555927D01*
X231348157Y-53695600D01*
X229489000Y-53695600D01*
X229187675Y-53755537D01*
X228932224Y-53926224D01*
X228849563Y-54008885D01*
X228605080Y-54109903D01*
X228354782Y-54359764D01*
X228219154Y-54686391D01*
X228218846Y-55040057D01*
X211249495Y-55040057D01*
X216521850Y-49767702D01*
X216604694Y-49767774D01*
X216744468Y-49710020D01*
X219407224Y-52372776D01*
X219662675Y-52543463D01*
X219964000Y-52603400D01*
X239449848Y-52603400D01*
X239936885Y-53090437D01*
X240037903Y-53334920D01*
X240287764Y-53585218D01*
X240614391Y-53720846D01*
X240968057Y-53721154D01*
X241294920Y-53586097D01*
X241545218Y-53336236D01*
X241680846Y-53009609D01*
X241681154Y-52655943D01*
X241546097Y-52329080D01*
X241296236Y-52078782D01*
X241050149Y-51976597D01*
X240332776Y-51259224D01*
X240077325Y-51088537D01*
X239776000Y-51028600D01*
X220290152Y-51028600D01*
X217858254Y-48596702D01*
X217915206Y-48459547D01*
X217915745Y-47841679D01*
X220980000Y-47841679D01*
X220980000Y-48424321D01*
X221105675Y-49056131D01*
X221463567Y-49591754D01*
X221999190Y-49949646D01*
X222631000Y-50075321D01*
X223262810Y-49949646D01*
X223798433Y-49591754D01*
X223901000Y-49438252D01*
X224003567Y-49591754D01*
X224539190Y-49949646D01*
X225171000Y-50075321D01*
X225802810Y-49949646D01*
X226338433Y-49591754D01*
X226455054Y-49417219D01*
X226633370Y-49644236D01*
X227196523Y-49960926D01*
X227328056Y-49992975D01*
X227584000Y-49873836D01*
X227584000Y-48260000D01*
X227838000Y-48260000D01*
X227838000Y-49873836D01*
X228093944Y-49992975D01*
X228225477Y-49960926D01*
X228788630Y-49644236D01*
X229187724Y-49136143D01*
X229362000Y-48514000D01*
X229362000Y-48260000D01*
X227838000Y-48260000D01*
X227584000Y-48260000D01*
X227564000Y-48260000D01*
X227564000Y-48006000D01*
X227584000Y-48006000D01*
X227584000Y-46392164D01*
X227838000Y-46392164D01*
X227838000Y-48006000D01*
X229362000Y-48006000D01*
X229362000Y-47752000D01*
X229187724Y-47129857D01*
X228788630Y-46621764D01*
X228225477Y-46305074D01*
X228093944Y-46273025D01*
X227838000Y-46392164D01*
X227584000Y-46392164D01*
X227328056Y-46273025D01*
X227196523Y-46305074D01*
X226633370Y-46621764D01*
X226455054Y-46848781D01*
X226338433Y-46674246D01*
X225802810Y-46316354D01*
X225171000Y-46190679D01*
X224539190Y-46316354D01*
X224003567Y-46674246D01*
X223901000Y-46827748D01*
X223798433Y-46674246D01*
X223262810Y-46316354D01*
X222631000Y-46190679D01*
X221999190Y-46316354D01*
X221463567Y-46674246D01*
X221105675Y-47209869D01*
X220980000Y-47841679D01*
X217915745Y-47841679D01*
X217915774Y-47809306D01*
X217667462Y-47208345D01*
X217208073Y-46748154D01*
X216607547Y-46498794D01*
X215957306Y-46498226D01*
X215356345Y-46746538D01*
X214896154Y-47205927D01*
X214646794Y-47806453D01*
X214646226Y-48456694D01*
X214894538Y-49057655D01*
X214949617Y-49112831D01*
X205921848Y-58140600D01*
X192400952Y-58140600D01*
X196922152Y-53619400D01*
X197709660Y-53619400D01*
X197891585Y-53891670D01*
X197905913Y-53901243D01*
X197884683Y-53905238D01*
X197668559Y-54044310D01*
X197523569Y-54256510D01*
X197472560Y-54508400D01*
X197472560Y-56235600D01*
X197516838Y-56470917D01*
X197655910Y-56687041D01*
X197868110Y-56832031D01*
X198120000Y-56883040D01*
X200152000Y-56883040D01*
X200387317Y-56838762D01*
X200603441Y-56699690D01*
X200748431Y-56487490D01*
X200799440Y-56235600D01*
X200799440Y-54508400D01*
X200755162Y-54273083D01*
X200616090Y-54056959D01*
X200403890Y-53911969D01*
X200362561Y-53903600D01*
X200380415Y-53891670D01*
X200705271Y-53405489D01*
X200819345Y-52832000D01*
X200705271Y-52258511D01*
X200380415Y-51772330D01*
X200065634Y-51562000D01*
X200380415Y-51351670D01*
X200705271Y-50865489D01*
X200819345Y-50292000D01*
X200705271Y-49718511D01*
X200380415Y-49232330D01*
X200065634Y-49022000D01*
X200380415Y-48811670D01*
X200705271Y-48325489D01*
X200819345Y-47752000D01*
X200705271Y-47178511D01*
X200380415Y-46692330D01*
X200065634Y-46482000D01*
X200380415Y-46271670D01*
X200705271Y-45785489D01*
X200819345Y-45212000D01*
X200706899Y-44646694D01*
X214646226Y-44646694D01*
X214894538Y-45247655D01*
X215353927Y-45707846D01*
X215954453Y-45957206D01*
X216604694Y-45957774D01*
X217205655Y-45709462D01*
X217665846Y-45250073D01*
X217915206Y-44649547D01*
X217915774Y-43999306D01*
X217667462Y-43398345D01*
X217208073Y-42938154D01*
X216607547Y-42688794D01*
X215957306Y-42688226D01*
X215356345Y-42936538D01*
X214896154Y-43395927D01*
X214646794Y-43996453D01*
X214646226Y-44646694D01*
X200706899Y-44646694D01*
X200705271Y-44638511D01*
X200380415Y-44152330D01*
X199894234Y-43827474D01*
X199320745Y-43713400D01*
X198951255Y-43713400D01*
X198377766Y-43827474D01*
X197891585Y-44152330D01*
X197566729Y-44638511D01*
X197452655Y-45212000D01*
X197566729Y-45785489D01*
X197891585Y-46271670D01*
X198206366Y-46482000D01*
X197891585Y-46692330D01*
X197709660Y-46964600D01*
X197104000Y-46964600D01*
X196802675Y-47024537D01*
X196547224Y-47195224D01*
X193729848Y-50012600D01*
X172030152Y-50012600D01*
X169605231Y-47587679D01*
X172212000Y-47587679D01*
X172212000Y-48170321D01*
X172337675Y-48802131D01*
X172695567Y-49337754D01*
X173231190Y-49695646D01*
X173863000Y-49821321D01*
X174494810Y-49695646D01*
X175030433Y-49337754D01*
X175133000Y-49184252D01*
X175235567Y-49337754D01*
X175771190Y-49695646D01*
X176403000Y-49821321D01*
X177034810Y-49695646D01*
X177570433Y-49337754D01*
X177687054Y-49163219D01*
X177865370Y-49390236D01*
X178428523Y-49706926D01*
X178560056Y-49738975D01*
X178816000Y-49619836D01*
X178816000Y-48006000D01*
X179070000Y-48006000D01*
X179070000Y-49619836D01*
X179325944Y-49738975D01*
X179457477Y-49706926D01*
X180020630Y-49390236D01*
X180419724Y-48882143D01*
X180594000Y-48260000D01*
X180594000Y-48006000D01*
X179070000Y-48006000D01*
X178816000Y-48006000D01*
X178796000Y-48006000D01*
X178796000Y-47752000D01*
X178816000Y-47752000D01*
X178816000Y-46138164D01*
X179070000Y-46138164D01*
X179070000Y-47752000D01*
X180594000Y-47752000D01*
X180594000Y-47498000D01*
X180419724Y-46875857D01*
X180020630Y-46367764D01*
X179457477Y-46051074D01*
X179325944Y-46019025D01*
X179070000Y-46138164D01*
X178816000Y-46138164D01*
X178560056Y-46019025D01*
X178428523Y-46051074D01*
X177865370Y-46367764D01*
X177687054Y-46594781D01*
X177570433Y-46420246D01*
X177034810Y-46062354D01*
X176403000Y-45936679D01*
X175771190Y-46062354D01*
X175235567Y-46420246D01*
X175133000Y-46573748D01*
X175030433Y-46420246D01*
X174494810Y-46062354D01*
X173863000Y-45936679D01*
X173231190Y-46062354D01*
X172695567Y-46420246D01*
X172337675Y-46955869D01*
X172212000Y-47587679D01*
X169605231Y-47587679D01*
X169339776Y-47322224D01*
X169084325Y-47151537D01*
X168971682Y-47129131D01*
X168899462Y-46954345D01*
X168440073Y-46494154D01*
X167839547Y-46244794D01*
X167189306Y-46244226D01*
X166588345Y-46492538D01*
X166128154Y-46951927D01*
X165878794Y-47552453D01*
X165878226Y-48202694D01*
X166126538Y-48803655D01*
X166585927Y-49263846D01*
X166725600Y-49321843D01*
X166725600Y-51616848D01*
X161217848Y-57124600D01*
X140004543Y-57124600D01*
X140449846Y-56680073D01*
X140699206Y-56079547D01*
X140699774Y-55429306D01*
X140451462Y-54828345D01*
X140258853Y-54635400D01*
X145288000Y-54635400D01*
X145589325Y-54575463D01*
X145844776Y-54404776D01*
X146630152Y-53619400D01*
X147417660Y-53619400D01*
X147599585Y-53891670D01*
X147613913Y-53901243D01*
X147592683Y-53905238D01*
X147376559Y-54044310D01*
X147231569Y-54256510D01*
X147180560Y-54508400D01*
X147180560Y-56235600D01*
X147224838Y-56470917D01*
X147363910Y-56687041D01*
X147576110Y-56832031D01*
X147828000Y-56883040D01*
X149860000Y-56883040D01*
X150095317Y-56838762D01*
X150311441Y-56699690D01*
X150456431Y-56487490D01*
X150507440Y-56235600D01*
X150507440Y-54508400D01*
X150463162Y-54273083D01*
X150324090Y-54056959D01*
X150111890Y-53911969D01*
X150070561Y-53903600D01*
X150088415Y-53891670D01*
X150413271Y-53405489D01*
X150527345Y-52832000D01*
X150413271Y-52258511D01*
X150088415Y-51772330D01*
X149773634Y-51562000D01*
X150088415Y-51351670D01*
X150413271Y-50865489D01*
X150527345Y-50292000D01*
X150413271Y-49718511D01*
X150088415Y-49232330D01*
X149773634Y-49022000D01*
X150088415Y-48811670D01*
X150413271Y-48325489D01*
X150527345Y-47752000D01*
X150413271Y-47178511D01*
X150088415Y-46692330D01*
X149773634Y-46482000D01*
X150088415Y-46271670D01*
X150413271Y-45785489D01*
X150527345Y-45212000D01*
X150413271Y-44638511D01*
X150249022Y-44392694D01*
X165878226Y-44392694D01*
X166126538Y-44993655D01*
X166585927Y-45453846D01*
X167186453Y-45703206D01*
X167836694Y-45703774D01*
X168243478Y-45535694D01*
X182261226Y-45535694D01*
X182509538Y-46136655D01*
X182968927Y-46596846D01*
X183569453Y-46846206D01*
X184219694Y-46846774D01*
X184820655Y-46598462D01*
X185280846Y-46139073D01*
X185530206Y-45538547D01*
X185530208Y-45535694D01*
X185817226Y-45535694D01*
X186065538Y-46136655D01*
X186524927Y-46596846D01*
X187125453Y-46846206D01*
X187775694Y-46846774D01*
X188376655Y-46598462D01*
X188836846Y-46139073D01*
X189086206Y-45538547D01*
X189086774Y-44888306D01*
X188838462Y-44287345D01*
X188379073Y-43827154D01*
X187778547Y-43577794D01*
X187128306Y-43577226D01*
X186527345Y-43825538D01*
X186067154Y-44284927D01*
X185817794Y-44885453D01*
X185817226Y-45535694D01*
X185530208Y-45535694D01*
X185530774Y-44888306D01*
X185282462Y-44287345D01*
X184823073Y-43827154D01*
X184222547Y-43577794D01*
X183572306Y-43577226D01*
X182971345Y-43825538D01*
X182511154Y-44284927D01*
X182261794Y-44885453D01*
X182261226Y-45535694D01*
X168243478Y-45535694D01*
X168437655Y-45455462D01*
X168897846Y-44996073D01*
X169147206Y-44395547D01*
X169147774Y-43745306D01*
X168899462Y-43144345D01*
X168440073Y-42684154D01*
X167839547Y-42434794D01*
X167189306Y-42434226D01*
X166588345Y-42682538D01*
X166128154Y-43141927D01*
X165878794Y-43742453D01*
X165878226Y-44392694D01*
X150249022Y-44392694D01*
X150088415Y-44152330D01*
X149602234Y-43827474D01*
X149028745Y-43713400D01*
X148659255Y-43713400D01*
X148085766Y-43827474D01*
X147599585Y-44152330D01*
X147274729Y-44638511D01*
X147160655Y-45212000D01*
X147274729Y-45785489D01*
X147599585Y-46271670D01*
X147914366Y-46482000D01*
X147599585Y-46692330D01*
X147274729Y-47178511D01*
X147160655Y-47752000D01*
X147274729Y-48325489D01*
X147599585Y-48811670D01*
X147914366Y-49022000D01*
X147599585Y-49232330D01*
X147274729Y-49718511D01*
X147160655Y-50292000D01*
X147274729Y-50865489D01*
X147599585Y-51351670D01*
X147914366Y-51562000D01*
X147599585Y-51772330D01*
X147417660Y-52044600D01*
X146304000Y-52044600D01*
X146002675Y-52104537D01*
X145747224Y-52275224D01*
X144961848Y-53060600D01*
X127508000Y-53060600D01*
X127206675Y-53120537D01*
X126951224Y-53291224D01*
X124201563Y-56040885D01*
X123957080Y-56141903D01*
X123706782Y-56391764D01*
X123571154Y-56718391D01*
X123570846Y-57072057D01*
X123592556Y-57124600D01*
X119684543Y-57124600D01*
X120129846Y-56680073D01*
X120379206Y-56079547D01*
X120379774Y-55429306D01*
X120131462Y-54828345D01*
X119672073Y-54368154D01*
X119071547Y-54118794D01*
X118421306Y-54118226D01*
X117820345Y-54366538D01*
X117360154Y-54825927D01*
X117110794Y-55426453D01*
X117110226Y-56076694D01*
X117358538Y-56677655D01*
X117804704Y-57124600D01*
X97354152Y-57124600D01*
X94767400Y-54537848D01*
X94767400Y-53340000D01*
X94707463Y-53038675D01*
X94536776Y-52783224D01*
X93012776Y-51259224D01*
X92757325Y-51088537D01*
X92456000Y-51028600D01*
X74168000Y-51028600D01*
X73866675Y-51088537D01*
X73611224Y-51259224D01*
X71738340Y-53132108D01*
X71738774Y-52635306D01*
X71490462Y-52034345D01*
X71031073Y-51574154D01*
X70430547Y-51324794D01*
X69780306Y-51324226D01*
X69179345Y-51572538D01*
X68719154Y-52031927D01*
X68469794Y-52632453D01*
X68469226Y-53282694D01*
X68587360Y-53568600D01*
X57277000Y-53568600D01*
X57277000Y-48992552D01*
X58046873Y-48222679D01*
X74803000Y-48222679D01*
X74803000Y-48805321D01*
X74928675Y-49437131D01*
X75286567Y-49972754D01*
X75822190Y-50330646D01*
X76454000Y-50456321D01*
X77085810Y-50330646D01*
X77621433Y-49972754D01*
X77724000Y-49819252D01*
X77826567Y-49972754D01*
X78362190Y-50330646D01*
X78994000Y-50456321D01*
X79625810Y-50330646D01*
X80161433Y-49972754D01*
X80278054Y-49798219D01*
X80456370Y-50025236D01*
X81019523Y-50341926D01*
X81151056Y-50373975D01*
X81407000Y-50254836D01*
X81407000Y-48641000D01*
X81661000Y-48641000D01*
X81661000Y-50254836D01*
X81916944Y-50373975D01*
X82048477Y-50341926D01*
X82611630Y-50025236D01*
X83010724Y-49517143D01*
X83185000Y-48895000D01*
X83185000Y-48641000D01*
X81661000Y-48641000D01*
X81407000Y-48641000D01*
X81387000Y-48641000D01*
X81387000Y-48387000D01*
X81407000Y-48387000D01*
X81407000Y-46773164D01*
X81661000Y-46773164D01*
X81661000Y-48387000D01*
X83185000Y-48387000D01*
X83185000Y-48133000D01*
X83010724Y-47510857D01*
X82611630Y-47002764D01*
X82048477Y-46686074D01*
X81916944Y-46654025D01*
X81661000Y-46773164D01*
X81407000Y-46773164D01*
X81151056Y-46654025D01*
X81019523Y-46686074D01*
X80456370Y-47002764D01*
X80278054Y-47229781D01*
X80161433Y-47055246D01*
X79625810Y-46697354D01*
X78994000Y-46571679D01*
X78362190Y-46697354D01*
X77826567Y-47055246D01*
X77724000Y-47208748D01*
X77621433Y-47055246D01*
X77085810Y-46697354D01*
X76454000Y-46571679D01*
X75822190Y-46697354D01*
X75286567Y-47055246D01*
X74928675Y-47590869D01*
X74803000Y-48222679D01*
X58046873Y-48222679D01*
X67890152Y-38379400D01*
X69037235Y-38379400D01*
X68719154Y-38696927D01*
X68469794Y-39297453D01*
X68469226Y-39947694D01*
X68717538Y-40548655D01*
X69176927Y-41008846D01*
X69665432Y-41211691D01*
X69179345Y-41412538D01*
X68719154Y-41871927D01*
X68469794Y-42472453D01*
X68469226Y-43122694D01*
X68717538Y-43723655D01*
X69176927Y-44183846D01*
X69777453Y-44433206D01*
X70427694Y-44433774D01*
X71028655Y-44185462D01*
X71488846Y-43726073D01*
X71580719Y-43504818D01*
X71648692Y-43459400D01*
X85547235Y-43459400D01*
X85229154Y-43776927D01*
X84979794Y-44377453D01*
X84979226Y-45027694D01*
X85227538Y-45628655D01*
X85686927Y-46088846D01*
X86287453Y-46338206D01*
X86937694Y-46338774D01*
X87538655Y-46090462D01*
X87998846Y-45631073D01*
X88248206Y-45030547D01*
X88248774Y-44380306D01*
X88000462Y-43779345D01*
X87681075Y-43459400D01*
X89357235Y-43459400D01*
X89039154Y-43776927D01*
X88789794Y-44377453D01*
X88789226Y-45027694D01*
X89037538Y-45628655D01*
X89496927Y-46088846D01*
X90097453Y-46338206D01*
X90747694Y-46338774D01*
X91348655Y-46090462D01*
X91808846Y-45631073D01*
X91866843Y-45491400D01*
X93764330Y-45491400D01*
X93983764Y-45711218D01*
X94310391Y-45846846D01*
X94664057Y-45847154D01*
X94990920Y-45712097D01*
X95241218Y-45462236D01*
X95376846Y-45135609D01*
X95377154Y-44781943D01*
X95242097Y-44455080D01*
X94992236Y-44204782D01*
X94687606Y-44078288D01*
X94535325Y-43976537D01*
X94234000Y-43916600D01*
X91867175Y-43916600D01*
X91810462Y-43779345D01*
X91491075Y-43459400D01*
X94669848Y-43459400D01*
X97487224Y-46276776D01*
X97742675Y-46447463D01*
X98044000Y-46507400D01*
X98649660Y-46507400D01*
X98831585Y-46779670D01*
X99146366Y-46990000D01*
X98831585Y-47200330D01*
X98649660Y-47472600D01*
X85670152Y-47472600D01*
X83360776Y-45163224D01*
X83105325Y-44992537D01*
X82804000Y-44932600D01*
X75605917Y-44932600D01*
X75361609Y-44831154D01*
X75007943Y-44830846D01*
X74681080Y-44965903D01*
X74430782Y-45215764D01*
X74295154Y-45542391D01*
X74294846Y-45896057D01*
X74429903Y-46222920D01*
X74679764Y-46473218D01*
X75006391Y-46608846D01*
X75360057Y-46609154D01*
X75606321Y-46507400D01*
X82477848Y-46507400D01*
X84787224Y-48816776D01*
X85042675Y-48987463D01*
X85344000Y-49047400D01*
X98649660Y-49047400D01*
X98831585Y-49319670D01*
X99146366Y-49530000D01*
X98831585Y-49740330D01*
X98506729Y-50226511D01*
X98392655Y-50800000D01*
X98506729Y-51373489D01*
X98831585Y-51859670D01*
X98845913Y-51869243D01*
X98824683Y-51873238D01*
X98608559Y-52012310D01*
X98463569Y-52224510D01*
X98412560Y-52476400D01*
X98412560Y-54203600D01*
X98456838Y-54438917D01*
X98595910Y-54655041D01*
X98808110Y-54800031D01*
X99060000Y-54851040D01*
X101092000Y-54851040D01*
X101327317Y-54806762D01*
X101543441Y-54667690D01*
X101688431Y-54455490D01*
X101739440Y-54203600D01*
X101739440Y-52476400D01*
X101695162Y-52241083D01*
X101556090Y-52024959D01*
X101343890Y-51879969D01*
X101302561Y-51871600D01*
X101320415Y-51859670D01*
X101645271Y-51373489D01*
X101759345Y-50800000D01*
X101645271Y-50226511D01*
X101320415Y-49740330D01*
X101005634Y-49530000D01*
X101320415Y-49319670D01*
X101645271Y-48833489D01*
X101759345Y-48260000D01*
X101645271Y-47686511D01*
X101320415Y-47200330D01*
X101005634Y-46990000D01*
X101320415Y-46779670D01*
X101645271Y-46293489D01*
X101759345Y-45720000D01*
X101645271Y-45146511D01*
X101320415Y-44660330D01*
X101005634Y-44450000D01*
X101320415Y-44239670D01*
X101645271Y-43753489D01*
X101759345Y-43180000D01*
X101645271Y-42606511D01*
X101320415Y-42120330D01*
X100834234Y-41795474D01*
X100260745Y-41681400D01*
X99891255Y-41681400D01*
X99317766Y-41795474D01*
X98831585Y-42120330D01*
X98506729Y-42606511D01*
X98392655Y-43180000D01*
X98506729Y-43753489D01*
X98831585Y-44239670D01*
X99146366Y-44450000D01*
X98831585Y-44660330D01*
X98649660Y-44932600D01*
X98370152Y-44932600D01*
X95552776Y-42115224D01*
X95297325Y-41944537D01*
X94996000Y-41884600D01*
X91745208Y-41884600D01*
X91808846Y-41821073D01*
X92058206Y-41220547D01*
X92058774Y-40570306D01*
X91810462Y-39969345D01*
X91351073Y-39509154D01*
X90750547Y-39259794D01*
X90100306Y-39259226D01*
X89499345Y-39507538D01*
X89039154Y-39966927D01*
X88789794Y-40567453D01*
X88789226Y-41217694D01*
X89037538Y-41818655D01*
X89103368Y-41884600D01*
X87935208Y-41884600D01*
X87998846Y-41821073D01*
X88248206Y-41220547D01*
X88248774Y-40570306D01*
X88000462Y-39969345D01*
X87541073Y-39509154D01*
X86940547Y-39259794D01*
X86290306Y-39259226D01*
X85689345Y-39507538D01*
X85229154Y-39966927D01*
X84979794Y-40567453D01*
X84979226Y-41217694D01*
X85227538Y-41818655D01*
X85293368Y-41884600D01*
X71494699Y-41884600D01*
X71490462Y-41874345D01*
X71031073Y-41414154D01*
X70542568Y-41211309D01*
X71028655Y-41010462D01*
X71488846Y-40551073D01*
X71738206Y-39950547D01*
X71738774Y-39300306D01*
X71490462Y-38699345D01*
X71171075Y-38379400D01*
X99241848Y-38379400D01*
X107012224Y-46149776D01*
X107267675Y-46320463D01*
X107569000Y-46380400D01*
X117301825Y-46380400D01*
X117358538Y-46517655D01*
X117817927Y-46977846D01*
X118418453Y-47227206D01*
X119068694Y-47227774D01*
X119669655Y-46979462D01*
X120129846Y-46520073D01*
X120379206Y-45919547D01*
X120379580Y-45491400D01*
X127131048Y-45491400D01*
X127078224Y-45544224D01*
X126907537Y-45799675D01*
X126847600Y-46101000D01*
X126847600Y-46420316D01*
X126467567Y-46674246D01*
X126365000Y-46827748D01*
X126262433Y-46674246D01*
X125726810Y-46316354D01*
X125095000Y-46190679D01*
X124463190Y-46316354D01*
X123927567Y-46674246D01*
X123569675Y-47209869D01*
X123444000Y-47841679D01*
X123444000Y-48424321D01*
X123569675Y-49056131D01*
X123927567Y-49591754D01*
X124463190Y-49949646D01*
X125095000Y-50075321D01*
X125726810Y-49949646D01*
X126262433Y-49591754D01*
X126365000Y-49438252D01*
X126467567Y-49591754D01*
X127003190Y-49949646D01*
X127635000Y-50075321D01*
X128266810Y-49949646D01*
X128802433Y-49591754D01*
X128919054Y-49417219D01*
X129097370Y-49644236D01*
X129660523Y-49960926D01*
X129792056Y-49992975D01*
X130048000Y-49873836D01*
X130048000Y-48260000D01*
X130302000Y-48260000D01*
X130302000Y-49873836D01*
X130557944Y-49992975D01*
X130689477Y-49960926D01*
X131252630Y-49644236D01*
X131651724Y-49136143D01*
X131826000Y-48514000D01*
X131826000Y-48260000D01*
X130302000Y-48260000D01*
X130048000Y-48260000D01*
X130028000Y-48260000D01*
X130028000Y-48006000D01*
X130048000Y-48006000D01*
X130048000Y-47986000D01*
X130302000Y-47986000D01*
X130302000Y-48006000D01*
X131826000Y-48006000D01*
X131826000Y-47752000D01*
X131651724Y-47129857D01*
X131252630Y-46621764D01*
X130823425Y-46380400D01*
X133811825Y-46380400D01*
X133868538Y-46517655D01*
X134327927Y-46977846D01*
X134928453Y-47227206D01*
X135578694Y-47227774D01*
X136179655Y-46979462D01*
X136639846Y-46520073D01*
X136889206Y-45919547D01*
X136889774Y-45269306D01*
X136641462Y-44668345D01*
X136448853Y-44475400D01*
X137871014Y-44475400D01*
X137680154Y-44665927D01*
X137430794Y-45266453D01*
X137430226Y-45916694D01*
X137678538Y-46517655D01*
X138137927Y-46977846D01*
X138738453Y-47227206D01*
X139388694Y-47227774D01*
X139989655Y-46979462D01*
X140449846Y-46520073D01*
X140507843Y-46380400D01*
X143167108Y-46380400D01*
X143259764Y-46473218D01*
X143586391Y-46608846D01*
X143940057Y-46609154D01*
X144266920Y-46474097D01*
X144517218Y-46224236D01*
X144652846Y-45897609D01*
X144653154Y-45543943D01*
X144518097Y-45217080D01*
X144268236Y-44966782D01*
X143941609Y-44831154D01*
X143764695Y-44831000D01*
X143637000Y-44805600D01*
X140508175Y-44805600D01*
X140451462Y-44668345D01*
X140258853Y-44475400D01*
X141564083Y-44475400D01*
X141808391Y-44576846D01*
X142162057Y-44577154D01*
X142488920Y-44442097D01*
X142739218Y-44192236D01*
X142874846Y-43865609D01*
X142875154Y-43511943D01*
X142740097Y-43185080D01*
X142490236Y-42934782D01*
X142163609Y-42799154D01*
X141809943Y-42798846D01*
X141563679Y-42900600D01*
X140716202Y-42900600D01*
X140809403Y-42676149D01*
X142902858Y-40582694D01*
X182388226Y-40582694D01*
X182636538Y-41183655D01*
X183095927Y-41643846D01*
X183696453Y-41893206D01*
X184346694Y-41893774D01*
X184947655Y-41645462D01*
X185407846Y-41186073D01*
X185657206Y-40585547D01*
X185657208Y-40582694D01*
X186198226Y-40582694D01*
X186446538Y-41183655D01*
X186905927Y-41643846D01*
X187506453Y-41893206D01*
X188156694Y-41893774D01*
X188757655Y-41645462D01*
X189217846Y-41186073D01*
X189371489Y-40816057D01*
X226694846Y-40816057D01*
X226829903Y-41142920D01*
X227079764Y-41393218D01*
X227325851Y-41495403D01*
X230710224Y-44879776D01*
X230965675Y-45050463D01*
X231267000Y-45110400D01*
X231347825Y-45110400D01*
X231404538Y-45247655D01*
X231863927Y-45707846D01*
X232464453Y-45957206D01*
X233114694Y-45957774D01*
X233715655Y-45709462D01*
X234175846Y-45250073D01*
X234425206Y-44649547D01*
X234425208Y-44646694D01*
X234966226Y-44646694D01*
X235214538Y-45247655D01*
X235673927Y-45707846D01*
X236274453Y-45957206D01*
X236924694Y-45957774D01*
X237525655Y-45709462D01*
X237985846Y-45250073D01*
X238235206Y-44649547D01*
X238235774Y-43999306D01*
X237987462Y-43398345D01*
X237528073Y-42938154D01*
X236927547Y-42688794D01*
X236277306Y-42688226D01*
X235676345Y-42936538D01*
X235216154Y-43395927D01*
X234966794Y-43996453D01*
X234966226Y-44646694D01*
X234425208Y-44646694D01*
X234425774Y-43999306D01*
X234177462Y-43398345D01*
X233718073Y-42938154D01*
X233117547Y-42688794D01*
X232467306Y-42688226D01*
X231866345Y-42936538D01*
X231429837Y-43372285D01*
X228894246Y-40836694D01*
X229886226Y-40836694D01*
X230134538Y-41437655D01*
X230593927Y-41897846D01*
X231194453Y-42147206D01*
X231844694Y-42147774D01*
X232445655Y-41899462D01*
X232905846Y-41440073D01*
X233155206Y-40839547D01*
X233155208Y-40836694D01*
X233696226Y-40836694D01*
X233944538Y-41437655D01*
X234403927Y-41897846D01*
X235004453Y-42147206D01*
X235654694Y-42147774D01*
X236255655Y-41899462D01*
X236715846Y-41440073D01*
X236965206Y-40839547D01*
X236965652Y-40328694D01*
X279924226Y-40328694D01*
X280172538Y-40929655D01*
X280631927Y-41389846D01*
X281232453Y-41639206D01*
X281882694Y-41639774D01*
X282483655Y-41391462D01*
X282943846Y-40932073D01*
X283193206Y-40331547D01*
X283193208Y-40328694D01*
X283734226Y-40328694D01*
X283982538Y-40929655D01*
X284441927Y-41389846D01*
X285042453Y-41639206D01*
X285692694Y-41639774D01*
X286293655Y-41391462D01*
X286753846Y-40932073D01*
X287003206Y-40331547D01*
X287003774Y-39681306D01*
X286755462Y-39080345D01*
X286296073Y-38620154D01*
X285695547Y-38370794D01*
X285045306Y-38370226D01*
X284444345Y-38618538D01*
X283984154Y-39077927D01*
X283734794Y-39678453D01*
X283734226Y-40328694D01*
X283193208Y-40328694D01*
X283193774Y-39681306D01*
X282945462Y-39080345D01*
X282486073Y-38620154D01*
X281885547Y-38370794D01*
X281235306Y-38370226D01*
X280634345Y-38618538D01*
X280174154Y-39077927D01*
X279924794Y-39678453D01*
X279924226Y-40328694D01*
X236965652Y-40328694D01*
X236965774Y-40189306D01*
X236717462Y-39588345D01*
X236258073Y-39128154D01*
X235657547Y-38878794D01*
X235007306Y-38878226D01*
X234406345Y-39126538D01*
X233946154Y-39585927D01*
X233696794Y-40186453D01*
X233696226Y-40836694D01*
X233155208Y-40836694D01*
X233155774Y-40189306D01*
X232907462Y-39588345D01*
X232448073Y-39128154D01*
X231847547Y-38878794D01*
X231197306Y-38878226D01*
X230596345Y-39126538D01*
X230136154Y-39585927D01*
X229886794Y-40186453D01*
X229886226Y-40836694D01*
X228894246Y-40836694D01*
X228439115Y-40381563D01*
X228338097Y-40137080D01*
X228088236Y-39886782D01*
X227761609Y-39751154D01*
X227407943Y-39750846D01*
X227081080Y-39885903D01*
X226830782Y-40135764D01*
X226695154Y-40462391D01*
X226694846Y-40816057D01*
X189371489Y-40816057D01*
X189467206Y-40585547D01*
X189467774Y-39935306D01*
X189219462Y-39334345D01*
X188760073Y-38874154D01*
X188159547Y-38624794D01*
X187509306Y-38624226D01*
X186908345Y-38872538D01*
X186448154Y-39331927D01*
X186198794Y-39932453D01*
X186198226Y-40582694D01*
X185657208Y-40582694D01*
X185657774Y-39935306D01*
X185409462Y-39334345D01*
X184950073Y-38874154D01*
X184349547Y-38624794D01*
X183699306Y-38624226D01*
X183098345Y-38872538D01*
X182638154Y-39331927D01*
X182388794Y-39932453D01*
X182388226Y-40582694D01*
X142902858Y-40582694D01*
X143514437Y-39971115D01*
X143758920Y-39870097D01*
X144009218Y-39620236D01*
X144144846Y-39293609D01*
X144145154Y-38939943D01*
X144010097Y-38613080D01*
X143760236Y-38362782D01*
X143433609Y-38227154D01*
X143079943Y-38226846D01*
X142753080Y-38361903D01*
X142502782Y-38611764D01*
X142400597Y-38857851D01*
X140699451Y-40558997D01*
X140699774Y-40189306D01*
X140451462Y-39588345D01*
X139992073Y-39128154D01*
X139391547Y-38878794D01*
X138741306Y-38878226D01*
X138140345Y-39126538D01*
X137680154Y-39585927D01*
X137430794Y-40186453D01*
X137430226Y-40836694D01*
X137678538Y-41437655D01*
X138137927Y-41897846D01*
X138738453Y-42147206D01*
X139103715Y-42147525D01*
X139065154Y-42240391D01*
X139064846Y-42594057D01*
X139191507Y-42900600D01*
X132080000Y-42900600D01*
X131778675Y-42960537D01*
X131523224Y-43131224D01*
X130737848Y-43916600D01*
X119634000Y-43916600D01*
X119332675Y-43976537D01*
X119248970Y-44032467D01*
X119071547Y-43958794D01*
X118421306Y-43958226D01*
X117820345Y-44206538D01*
X117360154Y-44665927D01*
X117302157Y-44805600D01*
X108851670Y-44805600D01*
X108957218Y-44700236D01*
X109092846Y-44373609D01*
X109093154Y-44019943D01*
X108958097Y-43693080D01*
X108708236Y-43442782D01*
X108707863Y-43442627D01*
X107371930Y-42106694D01*
X117110226Y-42106694D01*
X117358538Y-42707655D01*
X117817927Y-43167846D01*
X118418453Y-43417206D01*
X119068694Y-43417774D01*
X119669655Y-43169462D01*
X120129846Y-42710073D01*
X120379206Y-42109547D01*
X120379774Y-41459306D01*
X120131462Y-40858345D01*
X120109849Y-40836694D01*
X133620226Y-40836694D01*
X133868538Y-41437655D01*
X134327927Y-41897846D01*
X134928453Y-42147206D01*
X135578694Y-42147774D01*
X136179655Y-41899462D01*
X136639846Y-41440073D01*
X136889206Y-40839547D01*
X136889774Y-40189306D01*
X136641462Y-39588345D01*
X136182073Y-39128154D01*
X135581547Y-38878794D01*
X134931306Y-38878226D01*
X134330345Y-39126538D01*
X133870154Y-39585927D01*
X133620794Y-40186453D01*
X133620226Y-40836694D01*
X120109849Y-40836694D01*
X119672073Y-40398154D01*
X119071547Y-40148794D01*
X118421306Y-40148226D01*
X117820345Y-40396538D01*
X117360154Y-40855927D01*
X117110794Y-41456453D01*
X117110226Y-42106694D01*
X107371930Y-42106694D01*
X99497930Y-34232694D01*
X165878226Y-34232694D01*
X166126538Y-34833655D01*
X166585927Y-35293846D01*
X167186453Y-35543206D01*
X167836694Y-35543774D01*
X168437655Y-35295462D01*
X168897846Y-34836073D01*
X169042920Y-34486694D01*
X214646226Y-34486694D01*
X214894538Y-35087655D01*
X215353927Y-35547846D01*
X215954453Y-35797206D01*
X216604694Y-35797774D01*
X217205655Y-35549462D01*
X217665846Y-35090073D01*
X217915206Y-34489547D01*
X217915774Y-33839306D01*
X217667462Y-33238345D01*
X217208073Y-32778154D01*
X217040795Y-32708694D01*
X264684226Y-32708694D01*
X264932538Y-33309655D01*
X265391927Y-33769846D01*
X265992453Y-34019206D01*
X266642694Y-34019774D01*
X267243655Y-33771462D01*
X267703846Y-33312073D01*
X267953206Y-32711547D01*
X267953774Y-32061306D01*
X267705462Y-31460345D01*
X267246073Y-31000154D01*
X266645547Y-30750794D01*
X265995306Y-30750226D01*
X265394345Y-30998538D01*
X264934154Y-31457927D01*
X264684794Y-32058453D01*
X264684226Y-32708694D01*
X217040795Y-32708694D01*
X216607547Y-32528794D01*
X215957306Y-32528226D01*
X215356345Y-32776538D01*
X214896154Y-33235927D01*
X214646794Y-33836453D01*
X214646226Y-34486694D01*
X169042920Y-34486694D01*
X169147206Y-34235547D01*
X169147774Y-33585306D01*
X168899462Y-32984345D01*
X168440073Y-32524154D01*
X167839547Y-32274794D01*
X167189306Y-32274226D01*
X166588345Y-32522538D01*
X166128154Y-32981927D01*
X165878794Y-33582453D01*
X165878226Y-34232694D01*
X99497930Y-34232694D01*
X99180618Y-33915382D01*
X99066762Y-33839306D01*
X98892206Y-33722671D01*
X98552000Y-33655000D01*
X62357000Y-33655000D01*
X62357000Y-29787694D01*
X68469226Y-29787694D01*
X68717538Y-30388655D01*
X69176927Y-30848846D01*
X69777453Y-31098206D01*
X70427694Y-31098774D01*
X70527115Y-31057694D01*
X84979226Y-31057694D01*
X85227538Y-31658655D01*
X85686927Y-32118846D01*
X86287453Y-32368206D01*
X86937694Y-32368774D01*
X87538655Y-32120462D01*
X87998846Y-31661073D01*
X88248206Y-31060547D01*
X88248208Y-31057694D01*
X88789226Y-31057694D01*
X89037538Y-31658655D01*
X89496927Y-32118846D01*
X90097453Y-32368206D01*
X90747694Y-32368774D01*
X91348655Y-32120462D01*
X91522726Y-31946694D01*
X117110226Y-31946694D01*
X117358538Y-32547655D01*
X117817927Y-33007846D01*
X118418453Y-33257206D01*
X119068694Y-33257774D01*
X119669655Y-33009462D01*
X120129846Y-32550073D01*
X120379206Y-31949547D01*
X120379774Y-31299306D01*
X120131462Y-30698345D01*
X120109849Y-30676694D01*
X133620226Y-30676694D01*
X133868538Y-31277655D01*
X134327927Y-31737846D01*
X134928453Y-31987206D01*
X135578694Y-31987774D01*
X136179655Y-31739462D01*
X136639846Y-31280073D01*
X136889206Y-30679547D01*
X136889208Y-30676694D01*
X137430226Y-30676694D01*
X137678538Y-31277655D01*
X138137927Y-31737846D01*
X138738453Y-31987206D01*
X139388694Y-31987774D01*
X139989655Y-31739462D01*
X140449846Y-31280073D01*
X140699206Y-30679547D01*
X140699774Y-30029306D01*
X140451462Y-29428345D01*
X139992073Y-28968154D01*
X139391547Y-28718794D01*
X138741306Y-28718226D01*
X138140345Y-28966538D01*
X137680154Y-29425927D01*
X137430794Y-30026453D01*
X137430226Y-30676694D01*
X136889208Y-30676694D01*
X136889774Y-30029306D01*
X136641462Y-29428345D01*
X136182073Y-28968154D01*
X135581547Y-28718794D01*
X134931306Y-28718226D01*
X134330345Y-28966538D01*
X133870154Y-29425927D01*
X133620794Y-30026453D01*
X133620226Y-30676694D01*
X120109849Y-30676694D01*
X119672073Y-30238154D01*
X119071547Y-29988794D01*
X118421306Y-29988226D01*
X117820345Y-30236538D01*
X117360154Y-30695927D01*
X117110794Y-31296453D01*
X117110226Y-31946694D01*
X91522726Y-31946694D01*
X91808846Y-31661073D01*
X92058206Y-31060547D01*
X92058774Y-30410306D01*
X91810462Y-29809345D01*
X91351073Y-29349154D01*
X90750547Y-29099794D01*
X90100306Y-29099226D01*
X89499345Y-29347538D01*
X89039154Y-29806927D01*
X88789794Y-30407453D01*
X88789226Y-31057694D01*
X88248208Y-31057694D01*
X88248774Y-30410306D01*
X88000462Y-29809345D01*
X87541073Y-29349154D01*
X86940547Y-29099794D01*
X86290306Y-29099226D01*
X85689345Y-29347538D01*
X85229154Y-29806927D01*
X84979794Y-30407453D01*
X84979226Y-31057694D01*
X70527115Y-31057694D01*
X71028655Y-30850462D01*
X71488846Y-30391073D01*
X71738206Y-29790547D01*
X71738774Y-29140306D01*
X71490462Y-28539345D01*
X71419414Y-28468172D01*
X149732538Y-28468172D01*
X150137709Y-29448761D01*
X150887293Y-30199655D01*
X151867173Y-30606536D01*
X152928172Y-30607462D01*
X153375344Y-30422694D01*
X182388226Y-30422694D01*
X182636538Y-31023655D01*
X183095927Y-31483846D01*
X183696453Y-31733206D01*
X184346694Y-31733774D01*
X184947655Y-31485462D01*
X185407846Y-31026073D01*
X185657206Y-30425547D01*
X185657208Y-30422694D01*
X186198226Y-30422694D01*
X186446538Y-31023655D01*
X186905927Y-31483846D01*
X187506453Y-31733206D01*
X188156694Y-31733774D01*
X188757655Y-31485462D01*
X189217846Y-31026073D01*
X189362920Y-30676694D01*
X229886226Y-30676694D01*
X230134538Y-31277655D01*
X230593927Y-31737846D01*
X231194453Y-31987206D01*
X231844694Y-31987774D01*
X232445655Y-31739462D01*
X232905846Y-31280073D01*
X233155206Y-30679547D01*
X233155208Y-30676694D01*
X233696226Y-30676694D01*
X233944538Y-31277655D01*
X234403927Y-31737846D01*
X235004453Y-31987206D01*
X235654694Y-31987774D01*
X236255655Y-31739462D01*
X236715846Y-31280073D01*
X236965206Y-30679547D01*
X236965652Y-30168694D01*
X279924226Y-30168694D01*
X280172538Y-30769655D01*
X280631927Y-31229846D01*
X281232453Y-31479206D01*
X281882694Y-31479774D01*
X282483655Y-31231462D01*
X282943846Y-30772073D01*
X283193206Y-30171547D01*
X283193208Y-30168694D01*
X283734226Y-30168694D01*
X283982538Y-30769655D01*
X284441927Y-31229846D01*
X285042453Y-31479206D01*
X285692694Y-31479774D01*
X286293655Y-31231462D01*
X286753846Y-30772073D01*
X287003206Y-30171547D01*
X287003774Y-29521306D01*
X286755462Y-28920345D01*
X286296073Y-28460154D01*
X285695547Y-28210794D01*
X285045306Y-28210226D01*
X284444345Y-28458538D01*
X283984154Y-28917927D01*
X283734794Y-29518453D01*
X283734226Y-30168694D01*
X283193208Y-30168694D01*
X283193774Y-29521306D01*
X282945462Y-28920345D01*
X282486073Y-28460154D01*
X281885547Y-28210794D01*
X281235306Y-28210226D01*
X280634345Y-28458538D01*
X280174154Y-28917927D01*
X279924794Y-29518453D01*
X279924226Y-30168694D01*
X236965652Y-30168694D01*
X236965774Y-30029306D01*
X236717462Y-29428345D01*
X236258073Y-28968154D01*
X235657547Y-28718794D01*
X235007306Y-28718226D01*
X234406345Y-28966538D01*
X233946154Y-29425927D01*
X233696794Y-30026453D01*
X233696226Y-30676694D01*
X233155208Y-30676694D01*
X233155774Y-30029306D01*
X232907462Y-29428345D01*
X232448073Y-28968154D01*
X231847547Y-28718794D01*
X231197306Y-28718226D01*
X230596345Y-28966538D01*
X230136154Y-29425927D01*
X229886794Y-30026453D01*
X229886226Y-30676694D01*
X189362920Y-30676694D01*
X189467206Y-30425547D01*
X189467774Y-29775306D01*
X189219462Y-29174345D01*
X188760073Y-28714154D01*
X188159547Y-28464794D01*
X187509306Y-28464226D01*
X186908345Y-28712538D01*
X186448154Y-29171927D01*
X186198794Y-29772453D01*
X186198226Y-30422694D01*
X185657208Y-30422694D01*
X185657774Y-29775306D01*
X185409462Y-29174345D01*
X184950073Y-28714154D01*
X184349547Y-28464794D01*
X183699306Y-28464226D01*
X183098345Y-28712538D01*
X182638154Y-29171927D01*
X182388794Y-29772453D01*
X182388226Y-30422694D01*
X153375344Y-30422694D01*
X153908761Y-30202291D01*
X154659655Y-29452707D01*
X155066536Y-28472827D01*
X155067462Y-27411828D01*
X154662291Y-26431239D01*
X153912707Y-25680345D01*
X152932827Y-25273464D01*
X151871828Y-25272538D01*
X150891239Y-25677709D01*
X150140345Y-26427293D01*
X149733464Y-27407173D01*
X149732538Y-28468172D01*
X71419414Y-28468172D01*
X71031073Y-28079154D01*
X70430547Y-27829794D01*
X69780306Y-27829226D01*
X69179345Y-28077538D01*
X68719154Y-28536927D01*
X68469794Y-29137453D01*
X68469226Y-29787694D01*
X62357000Y-29787694D01*
X62357000Y-24257000D01*
X78166160Y-24257000D01*
X77916369Y-24423905D01*
M02*
