M48
INCH,LZ
T1C0.016
T2C0.032
T3C0.039
T4C0.040
T5C0.045
T6C0.059
T7C0.120
%
G90
G05
T1
X0084Y-0283
X01055Y-0232
X0118Y-0282
X0122Y-027
X01225Y-02365
X0124Y-026
X0126Y-0274
X0126Y-0278
X0133Y-0244
X014Y-0258
X014Y-0282
X014Y-0296
X0142Y-0292
X0144Y-0278
X015Y-0236
X0154Y-023
X0156Y-025
X0158Y-023
X016Y-0252
X016Y-0294
X0162Y-0232
X0164Y-0234
X0171Y-031
X0182Y-0326
X0186Y-0262
X0202Y-0252
X0204Y-0248
X0206Y-0262
X0208Y-0282
X0208Y-0322
X0214Y-0286
X0221Y-0309
X0222Y-029
X0222Y-0332
X023Y-0332
X0234Y-0237
X0234Y-029
X0234Y-0296
X0235Y-0252
X0236Y-036
X0238Y-0336
X0239Y-0233
X024Y-0309
X0242Y-0286
X02465Y-0252
X0252Y-032
X0253Y-023
X028Y-0272
X02825Y-0315
X0286Y-02
X029Y-0295
X0296Y-018
X03Y-0272
X03235Y-03145
X0324Y-0216
X0325Y-0295
X0326Y-0276
X0349Y-0243
X0366Y-026
X0372Y-0177
X0378Y-0344
X0379Y-0215
X0383Y-0296
X0388Y-0221
X0388Y-026
X0394Y-0268
X0406Y-0272
X0419Y-0219
X0426Y-0174
X0431Y-0246
X0436Y-0276
X0452Y-032
X0454Y-0344
X0458Y-034
X0466Y-0318
X0482Y-0206
X0484Y-0266
X049Y-0224
X0516Y-0318
X0516Y-0344
X0522Y-022
X0526Y-0272
X0548Y-0246
X0551Y-0167
X0559Y-0172
X0562Y-0201
X0564Y-0154
X0566Y-018
X0566Y-0349
X058Y-0266
X0644Y-0348
X065Y-032
X0652Y-0354
X0656Y-0286
X0666Y-0286
X0669Y-0183
X0686Y-0228
X0716Y-0278
X074Y-025
X0769Y-0224
X077Y-0286
X0794Y-0294
X0818Y-035
X0824Y-0332
X0838Y-0358
X0842Y-029
X0858Y-0364
X0865Y-0231
X087Y-029
X0896Y-016
X0902Y-0216
X0902Y-0358
X0908Y-027
X0922Y-0254
X0938Y-0249
X0938Y-0264
X0944Y-0228
X0948Y-0208
X0948Y-0286
X0964Y-0336
X0988Y-0295
X0998Y-0321
X1008Y-034
X1024Y-0318
X1032Y-032
X1036Y-035
X1048Y-0364
X1068Y-0292
X1068Y-0332
X1073Y-02
X1098Y-026
X1114Y-0246
X1122Y-0248
X1136Y-0226
X1136Y-0258
X1147Y-0255
T2
X0078Y-0324
X0078Y-0344
X0108Y-0324
X0108Y-0344
T3
X07395Y-01185
X07395Y-01585
T4
X00555Y-0275
X00555Y-0285
X00555Y-0295
X00655Y-0275
X00655Y-0285
X00655Y-0295
X0066Y-0206
X0066Y-0216
X0066Y-0226
X0066Y-0236
X0066Y-0246
X0066Y-0256
X00685Y-0176
X00685Y-0186
X00935Y-0136
X01035Y-0136
X0146Y-0106
X0146Y-0136
X0146Y-0151
X0186Y-0106
X02035Y-0366
X02135Y-0366
X02235Y-0366
X0226Y-0106
X0231Y-0146
X0231Y-0161
X02335Y-0366
X02435Y-0366
X02535Y-0366
X0276Y-0116
X0276Y-0156
X0276Y-01685
X0276Y-02085
X0311Y-0106
X0321Y-0106
X0341Y-0121
X0341Y-0161
X0341Y-0176
X0341Y-0216
X0341Y-02985
X0341Y-03385
X0356Y-0121
X0356Y-0161
X0356Y-0176
X0356Y-0216
X0356Y-02985
X0356Y-03385
X0394Y-017
X0394Y-018
X0394Y-019
X0394Y-02
X0394Y-021
X0408Y-0373
X0418Y-0373
X04675Y-01245
X04675Y-01645
X04675Y-01795
X04675Y-02195
X05025Y-01045
X05125Y-01045
X05325Y-01195
X05325Y-01595
X05325Y-01795
X05325Y-02195
X05325Y-02995
X05325Y-03395
X05475Y-01195
X05475Y-01595
X05475Y-01795
X05475Y-02195
X05475Y-02995
X05475Y-03395
X0586Y-0178
X0586Y-0188
X0586Y-0198
X0586Y-0208
X0586Y-0218
X06595Y-01335
X06595Y-01735
X06595Y-01885
X06595Y-02285
X06945Y-01035
X07045Y-01035
X0724Y-0178
X0724Y-0218
X07245Y-01185
X07245Y-01585
X07245Y-03085
X07245Y-03485
X0738Y-0178
X0738Y-0218
X07395Y-03085
X07395Y-03485
X0784Y-0178
X0784Y-0188
X0784Y-0198
X0784Y-0208
X0784Y-0218
X08515Y-01345
X08515Y-01745
X08515Y-01895
X08515Y-02295
X08865Y-01045
X08965Y-01045
X09115Y-01195
X09115Y-01595
X09165Y-01745
X09165Y-02145
X09165Y-0312
X09165Y-0352
X09265Y-01195
X09265Y-01595
X09315Y-01745
X09315Y-02145
X09315Y-0312
X09315Y-0352
X0962Y-027
X0962Y-028
X0962Y-029
X0962Y-03
X0962Y-031
X10485Y-01275
X10485Y-01675
X10485Y-018
X10485Y-022
X1081Y-0105
X1091Y-0105
X11085Y-01175
X11085Y-01575
X1111Y-0175
X1111Y-0215
X1117Y-0302
X1117Y-0342
X11235Y-01175
X11235Y-01575
X11235Y-0175
X11235Y-0215
X1132Y-0302
X1132Y-0342
X11555Y-0251
X11555Y-0261
X11555Y-0271
X11555Y-0281
X11555Y-0291
T5
X0301Y-0191
X0301Y-0376
X0311Y-0191
X0311Y-0376
X0321Y-0191
X0321Y-0376
X0407Y-0305
X0417Y-0305
X0427Y-0305
X04925Y-01895
X04925Y-03745
X05025Y-01895
X05025Y-03745
X05125Y-01895
X05125Y-03745
X06845Y-01885
X06845Y-03735
X06945Y-01885
X06945Y-03735
X07045Y-01885
X07045Y-03735
X08765Y-01895
X08765Y-03745
X08865Y-01895
X08865Y-03745
X08965Y-01895
X08965Y-03745
X1071Y-019
X10715Y-03735
X1081Y-019
X10815Y-03735
X1091Y-019
X10915Y-03735
T6
X011179Y-0368
X016021Y-0368
T7
X0065Y-0365
X007Y-0115
X06Y-011
X06Y-037
X115Y-0105
X115Y-0365
T0
M30
